<svg width="256" height="256" viewBox="0 0 256 256" fill="none" xmlns="http://www.w3.org/2000/svg">
<rect width="256" height="256" fill="#080D0D"/>
<rect x="74" y="122.994" width="11.9924" height="11.9924" fill="#BCEA3E"/>
<path d="M94.9291 137V119.55H102.214L103.783 125.008C103.955 125.601 104.162 126.358 104.404 127.28C104.646 128.201 104.876 129.11 105.095 130.008C105.313 129.11 105.543 128.201 105.786 127.28C106.028 126.358 106.231 125.601 106.395 125.008L107.94 119.55H115.237V137H110.458V130.254C110.458 129.864 110.466 129.364 110.482 128.755C110.505 128.138 110.529 127.467 110.552 126.741C110.575 126.007 110.595 125.269 110.611 124.527C110.337 125.628 110.06 126.706 109.779 127.76C109.506 128.814 109.276 129.645 109.088 130.254L107.062 137H103.127L101.066 130.254C100.886 129.661 100.66 128.861 100.387 127.853C100.113 126.846 99.8362 125.808 99.5551 124.738C99.5863 125.816 99.6175 126.866 99.6488 127.889C99.6878 128.904 99.7073 129.692 99.7073 130.254V137H94.9291ZM119.776 137.223C118.535 137.223 117.52 136.922 116.731 136.321C115.95 135.72 115.56 134.806 115.56 133.58C115.56 132.659 115.771 131.921 116.192 131.367C116.614 130.805 117.184 130.387 117.902 130.114C118.62 129.84 119.425 129.677 120.315 129.622C121.408 129.552 122.181 129.438 122.633 129.282C123.086 129.126 123.313 128.88 123.313 128.544V128.498C123.313 128.224 123.184 128.01 122.926 127.853C122.676 127.689 122.337 127.608 121.907 127.608C120.963 127.608 120.447 127.982 120.361 128.732H116.075C116.177 127.326 116.731 126.245 117.738 125.488C118.745 124.73 120.198 124.352 122.095 124.352C124.008 124.352 125.46 124.73 126.451 125.488C127.451 126.245 127.95 127.326 127.95 128.732V137H123.383V135.267H123.336C122.93 136.001 122.43 136.512 121.837 136.801C121.252 137.082 120.564 137.223 119.776 137.223ZM121.298 134.306C121.806 134.306 122.274 134.162 122.704 133.873C123.141 133.584 123.36 133.167 123.36 132.62V131.636C122.915 131.792 122.29 131.941 121.486 132.081C121.01 132.159 120.631 132.304 120.35 132.515C120.077 132.718 119.94 132.979 119.94 133.299C119.94 133.612 120.065 133.857 120.315 134.037C120.572 134.217 120.9 134.306 121.298 134.306ZM128.766 137V124.633H133.31V126.881H133.333C133.559 126.046 133.911 125.464 134.387 125.136C134.863 124.801 135.527 124.633 136.378 124.633H137.549V128.38H135.839C135.105 128.38 134.524 128.623 134.094 129.107C133.665 129.591 133.45 130.246 133.45 131.074V137H128.766ZM137.779 137V119.55H142.463V128.662H142.51L145.649 124.633H150.942L146.586 130.067L151.083 137H145.766L143.142 132.725L142.463 133.569V137H137.779ZM156.219 137.281C154.939 137.281 153.803 137.008 152.811 136.461C151.82 135.907 151.043 135.142 150.481 134.166C149.926 133.19 149.649 132.073 149.649 130.816C149.649 129.552 149.926 128.435 150.481 127.467C151.035 126.491 151.796 125.73 152.764 125.183C153.74 124.629 154.861 124.352 156.126 124.352C157.39 124.352 158.511 124.621 159.487 125.16C160.463 125.699 161.224 126.444 161.771 127.397C162.325 128.349 162.602 129.446 162.602 130.688V131.941H154.193C154.209 132.597 154.412 133.108 154.802 133.475C155.193 133.842 155.727 134.025 156.407 134.025C156.906 134.025 157.332 133.932 157.683 133.744C158.042 133.557 158.284 133.295 158.409 132.96H162.555C162.407 133.803 162.036 134.548 161.443 135.196C160.849 135.845 160.1 136.356 159.194 136.731C158.296 137.098 157.305 137.281 156.219 137.281ZM154.228 129.317H158.281C158.202 128.81 157.988 128.416 157.636 128.135C157.285 127.846 156.824 127.701 156.254 127.701C155.685 127.701 155.224 127.846 154.873 128.135C154.521 128.416 154.306 128.81 154.228 129.317ZM162.902 137V124.633H167.586V137H162.902ZM165.232 123.813C164.498 123.813 163.897 123.602 163.429 123.181C162.968 122.759 162.738 122.216 162.738 121.553C162.738 120.897 162.968 120.362 163.429 119.948C163.897 119.527 164.498 119.316 165.232 119.316C165.966 119.316 166.564 119.527 167.024 119.948C167.493 120.362 167.727 120.897 167.727 121.553C167.727 122.216 167.493 122.759 167.024 123.181C166.564 123.602 165.966 123.813 165.232 123.813ZM174.679 137.281C173.344 137.281 172.169 137.02 171.154 136.496C170.139 135.966 169.346 135.216 168.776 134.248C168.214 133.28 167.933 132.136 167.933 130.816C167.933 129.497 168.214 128.357 168.776 127.397C169.346 126.429 170.139 125.679 171.154 125.148C172.169 124.617 173.344 124.352 174.679 124.352C176.022 124.352 177.197 124.617 178.204 125.148C179.219 125.679 180.007 126.429 180.57 127.397C181.14 128.357 181.425 129.497 181.425 130.816C181.425 132.136 181.14 133.28 180.57 134.248C180.007 135.216 179.219 135.966 178.204 136.496C177.197 137.02 176.022 137.281 174.679 137.281ZM174.679 133.627C175.233 133.627 175.705 133.393 176.096 132.924C176.494 132.448 176.693 131.746 176.693 130.816C176.693 129.887 176.494 129.189 176.096 128.72C175.705 128.244 175.233 128.006 174.679 128.006C174.124 128.006 173.648 128.244 173.25 128.72C172.86 129.189 172.664 129.887 172.664 130.816C172.664 131.746 172.86 132.448 173.25 132.924C173.648 133.393 174.124 133.627 174.679 133.627Z" fill="white"/>
</svg>
