<svg width="886" height="376" viewBox="0 0 886 376" fill="none" xmlns="http://www.w3.org/2000/svg">
<path d="M0 288.086V237.305L164.795 5.85938H244.141V236.084H294.434V288.086H244.141V369.629H182.861V288.086H0ZM182.861 236.084V70.0684H182.617L64.9414 235.596V236.084H182.861ZM443.018 375.488C413.721 375.488 388.493 367.839 367.334 352.539C346.175 337.24 329.818 315.592 318.262 287.598C306.868 259.603 301.172 226.4 301.172 187.988C301.172 149.414 306.868 116.13 318.262 88.1348C329.818 59.9772 346.175 38.2487 367.334 22.9492C388.493 7.64974 413.721 0 443.018 0C472.314 0 497.542 7.64974 518.701 22.9492C540.023 38.2487 556.38 59.9772 567.773 88.1348C579.167 116.13 584.863 149.414 584.863 187.988C584.863 226.4 579.167 259.684 567.773 287.842C556.38 315.837 540.023 337.484 518.701 352.783C497.542 367.92 472.314 375.488 443.018 375.488ZM443.018 322.266C468.083 322.266 487.777 310.303 502.1 286.377C516.585 262.451 523.828 229.655 523.828 187.988C523.828 145.996 516.585 113.037 502.1 89.1113C487.777 65.1855 468.083 53.2227 443.018 53.2227C417.952 53.2227 398.177 65.1855 383.691 89.1113C369.368 113.037 362.207 145.996 362.207 187.988C362.207 229.655 369.368 262.451 383.691 286.377C398.177 310.303 417.952 322.266 443.018 322.266ZM591.113 288.086V237.305L755.908 5.85938H835.254V236.084H885.547V288.086H835.254V369.629H773.975V288.086H591.113ZM773.975 236.084V70.0684H773.73L656.055 235.596V236.084H773.975Z" fill="url(#paint0_linear_471_4035)"/>
<defs>
<linearGradient id="paint0_linear_471_4035" x1="443.328" y1="-187.371" x2="443.328" y2="507.129" gradientUnits="userSpaceOnUse">
<stop stop-color="#E8E8E8" stop-opacity="0.3"/>
<stop offset="1" stop-color="white"/>
</linearGradient>
</defs>
</svg>
