<svg width="19" height="19" viewBox="0 0 19 19" fill="none" xmlns="http://www.w3.org/2000/svg">
<path d="M12.1757 0.877287L12.1087 1.39601L11.4668 6.40917L15.9417 4.02827L16.4089 3.77945L16.6312 4.26014L17.9295 7.07083L18.1475 7.54333L17.6667 7.74302L12.9903 9.67629L17.2898 12.3448L17.7345 12.6213L17.4375 13.0536L15.7023 15.5766L15.4042 16.0097L14.9865 15.6904L10.9587 12.612L10.7761 17.6638L10.7578 18.1865L6.65633 17.8505L6.72542 17.33L7.38167 12.321L2.91168 14.7013L2.44968 14.9466L2.22477 14.4745L0.903808 11.7012L0.677195 11.226L1.16407 11.0239L5.83947 9.09054L1.54102 6.42212L1.09629 6.14563L1.39323 5.71433L3.15109 3.15398L3.44828 2.71976L3.86696 3.03919L7.89008 6.11423L8.05765 1.06614L8.07418 0.541321L12.1757 0.877287Z" fill="#BCEA3E" stroke="url(#paint0_linear_6014_3760)"/>
<defs>
<linearGradient id="paint0_linear_6014_3760" x1="1.58189" y1="8.72219" x2="17.2521" y2="10.0058" gradientUnits="userSpaceOnUse">
<stop/>
<stop offset="1" stop-color="white"/>
</linearGradient>
</defs>
</svg>
