<svg width="170" height="41" viewBox="0 0 170 41" fill="none" xmlns="http://www.w3.org/2000/svg">
<path d="M45.2773 29.3231H57.2293V25.7231H49.5253V12.1631H45.2773V29.3231Z" fill="white" fill-opacity="0.5"/>
<path d="M64.3098 26.9232C62.6058 26.9232 61.7178 25.4352 61.7178 23.2032C61.7178 20.9712 62.6058 19.4592 64.3098 19.4592C66.0138 19.4592 66.9258 20.9712 66.9258 23.2032C66.9258 25.4352 66.0138 26.9232 64.3098 26.9232ZM64.3338 29.7072C68.2938 29.7072 70.8858 26.8992 70.8858 23.2032C70.8858 19.5072 68.2938 16.6992 64.3338 16.6992C60.3978 16.6992 57.7578 19.5072 57.7578 23.2032C57.7578 26.8992 60.3978 29.7072 64.3338 29.7072Z" fill="white" fill-opacity="0.5"/>
<path d="M77.7406 33.5708C79.5646 33.5708 81.1726 33.1628 82.2526 32.2028C83.2366 31.3148 83.8846 29.9708 83.8846 28.1228V17.0348H80.1406V18.3548H80.0926C79.3726 17.3228 78.2686 16.6748 76.6366 16.6748C73.5886 16.6748 71.4766 19.2188 71.4766 22.8188C71.4766 26.5868 74.0446 28.6508 76.8046 28.6508C78.2926 28.6508 79.2286 28.0508 79.9486 27.2348H80.0446V28.4588C80.0446 29.9468 79.3486 30.8108 77.6926 30.8108C76.3966 30.8108 75.7486 30.2588 75.5326 29.6108H71.7406C72.1246 32.1788 74.3566 33.5708 77.7406 33.5708ZM77.7166 25.7468C76.2526 25.7468 75.2926 24.5468 75.2926 22.6988C75.2926 20.8268 76.2526 19.6268 77.7166 19.6268C79.3486 19.6268 80.2126 21.0188 80.2126 22.6748C80.2126 24.4028 79.4206 25.7468 77.7166 25.7468Z" fill="white" fill-opacity="0.5"/>
<path d="M91.5832 26.9232C89.8792 26.9232 88.9912 25.4352 88.9912 23.2032C88.9912 20.9712 89.8792 19.4592 91.5832 19.4592C93.2872 19.4592 94.1988 20.9712 94.1988 23.2032C94.1988 25.4352 93.2872 26.9232 91.5832 26.9232ZM91.6072 29.7072C95.5668 29.7072 98.1588 26.8992 98.1588 23.2032C98.1588 19.5072 95.5668 16.6992 91.6072 16.6992C87.6712 16.6992 85.0312 19.5072 85.0312 23.2032C85.0312 26.8992 87.6712 29.7072 91.6072 29.7072Z" fill="white" fill-opacity="0.5"/>
<path d="M99.3008 29.3231H103.213V17.0351H99.3008V29.3231ZM99.3008 15.3311H103.213V12.1631H99.3008V15.3311Z" fill="white" fill-opacity="0.5"/>
<path d="M104.91 33.3788H108.822V28.0508H108.87C109.638 29.0828 110.766 29.7068 112.35 29.7068C115.566 29.7068 117.702 27.1628 117.702 23.1788C117.702 19.4828 115.71 16.6748 112.446 16.6748C110.766 16.6748 109.566 17.4188 108.726 18.5228H108.654V17.0348H104.91V33.3788ZM111.342 26.6828C109.662 26.6828 108.702 25.3148 108.702 23.3228C108.702 21.3308 109.566 19.8188 111.27 19.8188C112.95 19.8188 113.742 21.2108 113.742 23.3228C113.742 25.4108 112.83 26.6828 111.342 26.6828Z" fill="white" fill-opacity="0.5"/>
<path d="M124.074 29.7068C127.29 29.7068 129.666 28.3148 129.666 25.6268C129.666 22.4828 127.122 21.9308 124.962 21.5708C123.402 21.2828 122.01 21.1628 122.01 20.2988C122.01 19.5308 122.754 19.1708 123.714 19.1708C124.794 19.1708 125.538 19.5068 125.682 20.6108H129.282C129.09 18.1868 127.218 16.6748 123.738 16.6748C120.834 16.6748 118.434 18.0188 118.434 20.6108C118.434 23.4908 120.714 24.0668 122.85 24.4268C124.482 24.7148 125.97 24.8348 125.97 25.9388C125.97 26.7308 125.226 27.1628 124.05 27.1628C122.754 27.1628 121.938 26.5628 121.794 25.3388H118.098C118.218 28.0508 120.474 29.7068 124.074 29.7068Z" fill="white" fill-opacity="0.5"/>
<path d="M134.976 29.6832C136.68 29.6832 137.76 29.0112 138.648 27.8112H138.72V29.3232H142.464V17.0352H138.552V23.8992C138.552 25.3632 137.736 26.3712 136.392 26.3712C135.144 26.3712 134.544 25.6272 134.544 24.2832V17.0352H130.656V25.0992C130.656 27.8352 132.144 29.6832 134.976 29.6832Z" fill="white" fill-opacity="0.5"/>
<path d="M144.168 29.3228H148.08V22.4348C148.08 20.9708 148.8 19.9388 150.024 19.9388C151.2 19.9388 151.752 20.7068 151.752 22.0268V29.3228H155.664V22.4348C155.664 20.9708 156.36 19.9388 157.608 19.9388C158.784 19.9388 159.336 20.7068 159.336 22.0268V29.3228H163.248V21.3308C163.248 18.5708 161.856 16.6748 159.072 16.6748C157.488 16.6748 156.168 17.3468 155.208 18.8348H155.16C154.536 17.5148 153.312 16.6748 151.704 16.6748C149.928 16.6748 148.752 17.5148 147.984 18.7868H147.912V17.0348H144.168V29.3228Z" fill="white" fill-opacity="0.5"/>
<path fill-rule="evenodd" clip-rule="evenodd" d="M20.2812 34C27.7372 34 33.7812 27.9558 33.7812 20.5C33.7812 13.0442 27.7372 7 20.2812 7C12.8254 7 6.78125 13.0442 6.78125 20.5C6.78125 27.9558 12.8254 34 20.2812 34ZM22.365 17.4305C23.5157 16.2797 23.5157 14.4139 22.365 13.2631C21.2142 12.1123 19.3484 12.1123 18.1976 13.2631C17.0468 14.4139 17.0468 16.2797 18.1976 17.4305L20.2812 19.5141L22.365 17.4305ZM23.3508 22.5837C24.5016 23.7345 26.3674 23.7345 27.5182 22.5837C28.6689 21.4329 28.6689 19.5671 27.5182 18.4163C26.3674 17.2656 24.5016 17.2656 23.3508 18.4163L21.2671 20.5001L23.3508 22.5837ZM22.365 27.7369C23.5157 26.5861 23.5157 24.7204 22.365 23.5696L20.2812 21.4859L18.1976 23.5696C17.0468 24.7204 17.0468 26.5861 18.1976 27.7369C19.3484 28.8877 21.2142 28.8877 22.365 27.7369ZM13.0443 22.5837C11.8936 21.4329 11.8936 19.5671 13.0443 18.4163C14.1952 17.2656 16.0609 17.2656 17.2117 18.4163L19.2954 20.5001L17.2117 22.5837C16.0609 23.7345 14.1952 23.7345 13.0443 22.5837Z" fill="white" fill-opacity="0.5"/>
</svg>
