<svg width="46" height="38" viewBox="0 0 46 38" fill="none" xmlns="http://www.w3.org/2000/svg">
<path d="M36.8 9.5L46 9.5L46 19L36.8 19L36.8 9.5ZM36.8 -3.01041e-06L46 -3.8147e-06L46 9.5L36.8 9.5L36.8 -3.01041e-06ZM27.6 -2.20612e-06L36.8 -3.01041e-06L36.8 9.5L27.6 9.5L27.6 -2.20612e-06ZM36.8 19L46 19L46 28.5L36.8 28.5L36.8 19ZM27.6 28.5L36.8 28.5L36.8 38L27.6 38L27.6 28.5ZM27.6 9.5L36.8 9.5L36.8 19L27.6 19L27.6 9.5ZM9.20001 9.5L18.4 9.5L18.4 19L9.20001 19L9.20001 9.5ZM9.20001 -5.9754e-07L18.4 -1.40183e-06L18.4 9.5L9.20001 9.5L9.20001 -5.9754e-07ZM4.30733e-06 2.0675e-07L9.20001 -5.9754e-07L9.20001 9.5L5.13785e-06 9.5L4.30733e-06 2.0675e-07ZM9.20001 19L18.4 19L18.4 28.5L9.20001 28.5L9.20001 19ZM6.79888e-06 28.5L9.20001 28.5L9.20001 38L7.62939e-06 38L6.79888e-06 28.5ZM5.13785e-06 9.5L9.20001 9.5L9.20001 19L5.96836e-06 19L5.13785e-06 9.5Z" fill="white"/>
</svg>
