<svg width="1317" height="271" viewBox="0 0 1317 271" fill="none" xmlns="http://www.w3.org/2000/svg">
<path d="M0 266.133V4.21875H103.359C122.93 4.21875 139.863 7.73438 154.16 14.7656C168.574 21.6797 179.648 31.582 187.383 44.4727C195.234 57.3633 199.16 72.5977 199.16 90.1758C199.16 107.754 195.176 122.988 187.207 135.879C179.355 148.652 168.223 158.555 153.809 165.586C139.395 172.617 122.344 176.133 102.656 176.133H54.1406V266.133H0ZM54.1406 130.781H99.8438C114.141 130.781 125.449 127.148 133.77 119.883C142.09 112.5 146.25 102.598 146.25 90.1758C146.25 77.6367 142.09 67.7344 133.77 60.4688C125.449 53.2031 114.141 49.5703 99.8438 49.5703H54.1406V130.781Z" fill="url(#paint0_linear_261_83)" fill-opacity="0.06"/>
<path d="M213.061 266.133V4.21875H317.827C337.514 4.21875 354.506 7.73438 368.803 14.7656C383.217 21.6797 394.291 31.582 402.026 44.4727C409.877 57.3633 413.803 72.5977 413.803 90.1758C413.803 107.52 409.643 122.52 401.323 135.176C393.12 147.832 381.694 157.559 367.045 164.355L419.604 266.133H361.596L315.19 174.551C315.073 174.551 314.897 174.551 314.663 174.551H267.202V266.133H213.061ZM267.202 131.133H314.663C328.959 131.133 340.209 127.441 348.413 120.059C356.733 112.559 360.893 102.598 360.893 90.1758C360.893 77.6367 356.733 67.6758 348.413 60.293C340.092 52.9102 328.784 49.2188 314.487 49.2188H267.202V131.133Z" fill="url(#paint1_linear_261_83)" fill-opacity="0.06"/>
<path d="M486.942 4.21875V266.133H432.802V4.21875H486.942Z" fill="url(#paint2_linear_261_83)" fill-opacity="0.06"/>
<path d="M627.581 270.352C603.558 270.352 582.171 264.902 563.421 254.004C544.671 242.988 529.905 227.402 519.124 207.246C508.46 186.973 503.128 163.008 503.128 135.352C503.128 107.461 508.46 83.4375 519.124 63.2812C529.905 43.0078 544.671 27.4219 563.421 16.5234C582.171 5.50781 603.558 0 627.581 0C648.089 0 666.487 3.98438 682.777 11.9531C699.183 19.9219 712.601 31.1719 723.03 45.7031C733.46 60.1172 740.081 77.0508 742.894 96.5039H688.226C685.062 81.0352 678.148 69.082 667.484 60.6445C656.937 52.0898 643.87 47.8125 628.284 47.8125C606.019 47.8125 588.675 55.7227 576.253 71.543C563.831 87.2461 557.62 108.516 557.62 135.352C557.62 161.953 563.831 183.164 576.253 198.984C588.675 214.688 606.019 222.539 628.284 222.539C643.753 222.539 656.761 218.32 667.308 209.883C677.972 201.445 685.003 189.551 688.402 174.199H742.894C740.081 193.652 733.46 210.586 723.03 225C712.601 239.414 699.183 250.605 682.777 258.574C666.487 266.426 648.089 270.352 627.581 270.352Z" fill="url(#paint3_linear_261_83)" fill-opacity="0.06"/>
<path d="M812.869 4.21875V266.133H758.728V4.21875H812.869Z" fill="url(#paint4_linear_261_83)" fill-opacity="0.06"/>
<path d="M837.492 266.133V4.21875H894.445L978.645 138.164C981.691 143.086 985.793 150.059 990.949 159.082C996.105 168.105 1001.26 177.305 1006.42 186.68C1006.07 176.484 1005.83 166.523 1005.71 156.797C1005.6 146.953 1005.54 139.277 1005.54 133.77V4.21875H1059.5V266.133H1002.38L926.086 144.844C922.219 138.867 917.121 130.547 910.793 119.883C904.582 109.102 897.785 97.0312 890.402 83.6719C890.871 97.3828 891.164 109.57 891.281 120.234C891.516 130.898 891.633 139.043 891.633 144.668V266.133H837.492Z" fill="url(#paint5_linear_261_83)" fill-opacity="0.06"/>
<path d="M1200.49 270.352C1175.77 270.352 1154.03 264.727 1135.28 253.477C1116.53 242.227 1101.94 226.465 1091.51 206.191C1081.08 185.918 1075.87 162.305 1075.87 135.352C1075.87 107.461 1081.26 83.4375 1092.04 63.2812C1102.82 43.0078 1117.53 27.4219 1136.16 16.5234C1154.91 5.50781 1176.06 0 1199.62 0C1219.65 0 1237.94 3.86719 1254.46 11.6016C1271.1 19.3359 1284.75 30.1172 1295.42 43.9453C1306.08 57.6562 1312.53 73.6523 1314.75 91.9336H1259.91C1256.98 78.5742 1250.36 67.9102 1240.05 59.9414C1229.85 51.8555 1216.9 47.8125 1201.2 47.8125C1179.17 47.8125 1161.82 55.6641 1149.17 71.3672C1136.63 87.0703 1130.36 108.398 1130.36 135.352C1130.36 162.188 1136.69 183.457 1149.34 199.16C1162.12 214.746 1179.64 222.539 1201.9 222.539C1219.95 222.539 1234.65 217.559 1246.02 207.598C1257.51 197.52 1263.37 184.336 1263.6 168.047H1206.47V126.914H1316.51V160.312C1316.51 181.992 1311.53 201.094 1301.57 217.617C1291.73 234.141 1278.07 247.09 1260.61 256.465C1243.15 265.723 1223.11 270.352 1200.49 270.352Z" fill="url(#paint6_linear_261_83)" fill-opacity="0.06"/>
<defs>
<linearGradient id="paint0_linear_261_83" x1="573.679" y1="-14.8672" x2="573.679" y2="333.133" gradientUnits="userSpaceOnUse">
<stop stop-color="white"/>
<stop offset="1" stop-color="#03100F" stop-opacity="0"/>
</linearGradient>
<linearGradient id="paint1_linear_261_83" x1="573.679" y1="-14.8672" x2="573.679" y2="333.133" gradientUnits="userSpaceOnUse">
<stop stop-color="white"/>
<stop offset="1" stop-color="#03100F" stop-opacity="0"/>
</linearGradient>
<linearGradient id="paint2_linear_261_83" x1="573.679" y1="-14.8672" x2="573.679" y2="333.133" gradientUnits="userSpaceOnUse">
<stop stop-color="white"/>
<stop offset="1" stop-color="#03100F" stop-opacity="0"/>
</linearGradient>
<linearGradient id="paint3_linear_261_83" x1="573.679" y1="-14.8672" x2="573.679" y2="333.133" gradientUnits="userSpaceOnUse">
<stop stop-color="white"/>
<stop offset="1" stop-color="#03100F" stop-opacity="0"/>
</linearGradient>
<linearGradient id="paint4_linear_261_83" x1="573.679" y1="-14.8672" x2="573.679" y2="333.133" gradientUnits="userSpaceOnUse">
<stop stop-color="white"/>
<stop offset="1" stop-color="#03100F" stop-opacity="0"/>
</linearGradient>
<linearGradient id="paint5_linear_261_83" x1="573.679" y1="-14.8672" x2="573.679" y2="333.133" gradientUnits="userSpaceOnUse">
<stop stop-color="white"/>
<stop offset="1" stop-color="#03100F" stop-opacity="0"/>
</linearGradient>
<linearGradient id="paint6_linear_261_83" x1="573.679" y1="-14.8672" x2="573.679" y2="333.133" gradientUnits="userSpaceOnUse">
<stop stop-color="white"/>
<stop offset="1" stop-color="#03100F" stop-opacity="0"/>
</linearGradient>
</defs>
</svg>
