<svg width="1336" height="236" viewBox="0 0 1336 236" fill="none" xmlns="http://www.w3.org/2000/svg">
<path d="M114.752 276C77.6967 276 49.3075 267.984 29.5845 251.953C9.8615 235.802 0 212.713 0 182.684H70.4649C71.0626 193.571 75.3658 202.065 83.3745 208.166C91.3832 214.148 102.141 217.139 115.648 217.139C127.363 217.139 136.806 214.986 143.978 210.679C151.269 206.252 154.915 200.57 154.915 193.631C154.915 187.17 151.389 181.906 144.336 177.839C137.284 173.771 126.227 170.302 111.166 167.43L84.6296 162.406C58.8104 157.501 39.0874 148.408 25.4606 135.129C11.8338 121.849 5.0204 105.28 5.0204 85.42C5.0204 68.4317 9.62243 53.5371 18.8265 40.736C28.0306 27.935 40.8206 17.9454 57.1967 10.7672C73.5728 3.58908 92.5786 0 114.214 0C147.564 0 173.801 7.83615 192.927 23.5085C212.172 39.1808 222.212 61.0143 223.049 89.0091H154.557C153.72 79.6775 149.775 72.3199 142.723 66.9363C135.79 61.5527 126.765 58.8609 115.648 58.8609C105.13 58.8609 96.5232 61.0143 89.8293 65.3212C83.255 69.6281 79.9678 75.1313 79.9678 81.8309C79.9678 88.1716 83.1354 93.2562 89.4707 97.0845C95.806 100.793 105.907 103.904 119.772 106.416L141.288 110.364C172.008 115.987 194.242 125.02 207.988 137.462C221.734 149.784 228.607 166.653 228.607 188.068C228.607 216.062 218.686 237.717 198.844 253.03C179.001 268.343 150.971 276 114.752 276Z" fill="url(#paint0_linear_2162_795)" fill-opacity="0.1"/>
<path d="M331.275 276C311.074 276 293.383 271.873 278.202 263.618C263.021 255.363 251.187 243.818 242.7 228.983C234.333 214.029 230.149 196.681 230.149 176.941C230.149 157.202 234.333 139.914 242.7 125.079C251.187 110.125 263.021 98.5202 278.202 90.2653C293.383 82.0104 311.074 77.883 331.275 77.883C349.802 77.883 366.238 81.4122 380.582 88.4707C394.926 95.4096 406.282 105.1 414.649 117.542C423.016 129.984 427.499 144.401 428.097 160.791H359.604C359.006 152.296 356.257 145.657 351.356 140.871C346.575 135.966 340.359 133.514 332.709 133.514C323.266 133.514 315.855 137.342 310.476 144.999C305.216 152.655 302.587 163.303 302.587 176.941C302.587 190.46 305.216 201.108 310.476 208.884C315.855 216.541 323.266 220.369 332.709 220.369C340.359 220.369 346.575 217.857 351.356 212.832C356.257 207.808 359.006 200.988 359.604 192.375H428.097C428.097 208.765 423.973 223.241 415.725 235.802C407.477 248.364 396.062 258.234 381.479 265.412C367.015 272.471 350.28 276 331.275 276Z" fill="url(#paint1_linear_2162_795)" fill-opacity="0.1"/>
<path d="M494.724 275.103C475.719 275.103 460.179 270.497 448.107 261.285C436.153 252.073 430.177 238.075 430.177 219.293C430.177 205.176 433.404 193.87 439.859 185.376C446.314 176.762 455.039 170.362 466.037 166.174C477.034 161.987 489.345 159.475 502.972 158.637C519.707 157.56 531.541 155.826 538.474 153.433C545.407 151.04 548.873 147.272 548.873 142.127V141.41C548.873 137.222 546.901 133.932 542.956 131.54C539.131 129.027 533.931 127.771 527.357 127.771C512.894 127.771 505.004 133.514 503.689 144.999H438.066C439.62 123.464 448.107 106.895 463.526 95.29C478.946 83.6853 501.179 77.883 530.226 77.883C559.512 77.883 581.745 83.6853 596.925 95.29C612.226 106.895 619.876 123.464 619.876 144.999V271.693H549.949V245.134H549.232C543.016 256.38 535.366 264.216 526.281 268.642C517.316 272.949 506.797 275.103 494.724 275.103ZM518.034 230.419C525.803 230.419 532.975 228.205 539.549 223.779C546.243 219.352 549.59 212.952 549.59 204.577V189.503C542.777 191.896 533.214 194.169 520.902 196.322C513.611 197.519 507.813 199.732 503.51 202.962C499.327 206.073 497.235 210.081 497.235 214.986C497.235 219.771 499.147 223.54 502.972 226.291C506.917 229.043 511.937 230.419 518.034 230.419Z" fill="url(#paint2_linear_2162_795)" fill-opacity="0.1"/>
<path d="M704.075 4.30689V271.693H632.355V4.30689H704.075Z" fill="url(#paint3_linear_2162_795)" fill-opacity="0.1"/>
<path d="M716.554 271.693V82.1899H788.274V271.693H716.554ZM752.235 69.6281C740.999 69.6281 731.795 66.3979 724.623 59.9376C717.57 53.4772 714.044 45.1625 714.044 34.9935C714.044 24.9441 717.57 16.749 724.623 10.4083C731.795 3.94798 740.999 0.717815 752.235 0.717815C763.471 0.717815 772.616 3.94798 779.668 10.4083C786.84 16.749 790.426 24.9441 790.426 34.9935C790.426 45.1625 786.84 53.4772 779.668 59.9376C772.616 66.3979 763.471 69.6281 752.235 69.6281Z" fill="url(#paint4_linear_2162_795)" fill-opacity="0.1"/>
<path d="M894.169 276C874.566 276 857.173 271.813 841.993 263.438C826.812 254.944 814.918 243.22 806.312 228.265C797.825 213.311 793.582 196.203 793.582 176.941C793.582 157.56 797.825 140.453 806.312 125.618C814.799 110.663 826.453 98.9987 841.276 90.6242C856.217 82.13 873.37 77.883 892.735 77.883C912.099 77.883 929.252 82.0104 944.194 90.2653C959.135 98.5202 970.79 109.945 979.157 124.541C987.644 139.137 991.888 155.945 991.888 174.967V194.169H863.15C863.389 204.218 866.497 212.055 872.474 217.677C878.45 223.3 886.638 226.112 897.038 226.112C904.688 226.112 911.203 224.676 916.582 221.805C922.08 218.934 925.786 214.926 927.698 209.782H991.17C988.899 222.702 983.221 234.127 974.137 244.057C965.052 253.987 953.577 261.823 939.711 267.566C925.965 273.189 910.784 276 894.169 276ZM863.688 153.971H925.726C924.53 146.195 921.243 140.153 915.864 135.847C910.485 131.42 903.433 129.207 894.707 129.207C885.981 129.207 878.929 131.42 873.549 135.847C868.171 140.153 864.883 146.195 863.688 153.971Z" fill="url(#paint5_linear_2162_795)" fill-opacity="0.1"/>
<path d="M1068.2 171.199V271.693H996.478V82.1899H1067.3V113.774C1073.64 102.887 1081.76 94.2133 1091.69 87.7529C1101.61 81.173 1113.98 77.883 1128.8 77.883C1149.84 77.883 1165.74 84.5826 1176.49 97.9818C1187.25 111.261 1192.63 129.326 1192.63 152.177V271.693H1120.91V168.328C1120.91 158.757 1118.64 151.399 1114.1 146.255C1109.56 141.111 1103.04 138.538 1094.55 138.538C1076.98 138.538 1068.2 149.425 1068.2 171.199Z" fill="url(#paint6_linear_2162_795)" fill-opacity="0.1"/>
<path d="M1336 82.1899V136.744H1296.91V202.424C1296.91 208.047 1297.99 211.935 1300.14 214.088C1302.41 216.122 1306.83 217.139 1313.41 217.139H1336V271.693H1296.55C1271.69 271.693 1253.58 267.207 1242.23 258.234C1230.87 249.142 1225.19 234.726 1225.19 214.986V136.744H1193.28V82.1899H1225.19V30.5072H1296.91V82.1899H1336Z" fill="url(#paint7_linear_2162_795)" fill-opacity="0.1"/>
<defs>
<linearGradient id="paint0_linear_2162_795" x1="728.328" y1="-26.6093" x2="728.328" y2="295.896" gradientUnits="userSpaceOnUse">
<stop stop-color="white" stop-opacity="0.8"/>
<stop offset="1" stop-color="#011917" stop-opacity="0"/>
</linearGradient>
<linearGradient id="paint1_linear_2162_795" x1="728.328" y1="-26.6093" x2="728.328" y2="295.896" gradientUnits="userSpaceOnUse">
<stop stop-color="white" stop-opacity="0.8"/>
<stop offset="1" stop-color="#011917" stop-opacity="0"/>
</linearGradient>
<linearGradient id="paint2_linear_2162_795" x1="728.328" y1="-26.6093" x2="728.328" y2="295.896" gradientUnits="userSpaceOnUse">
<stop stop-color="white" stop-opacity="0.8"/>
<stop offset="1" stop-color="#011917" stop-opacity="0"/>
</linearGradient>
<linearGradient id="paint3_linear_2162_795" x1="728.328" y1="-26.6093" x2="728.328" y2="295.896" gradientUnits="userSpaceOnUse">
<stop stop-color="white" stop-opacity="0.8"/>
<stop offset="1" stop-color="#011917" stop-opacity="0"/>
</linearGradient>
<linearGradient id="paint4_linear_2162_795" x1="728.328" y1="-26.6093" x2="728.328" y2="295.896" gradientUnits="userSpaceOnUse">
<stop stop-color="white" stop-opacity="0.8"/>
<stop offset="1" stop-color="#011917" stop-opacity="0"/>
</linearGradient>
<linearGradient id="paint5_linear_2162_795" x1="728.328" y1="-26.6093" x2="728.328" y2="295.896" gradientUnits="userSpaceOnUse">
<stop stop-color="white" stop-opacity="0.8"/>
<stop offset="1" stop-color="#011917" stop-opacity="0"/>
</linearGradient>
<linearGradient id="paint6_linear_2162_795" x1="728.328" y1="-26.6093" x2="728.328" y2="295.896" gradientUnits="userSpaceOnUse">
<stop stop-color="white" stop-opacity="0.8"/>
<stop offset="1" stop-color="#011917" stop-opacity="0"/>
</linearGradient>
<linearGradient id="paint7_linear_2162_795" x1="728.328" y1="-26.6093" x2="728.328" y2="295.896" gradientUnits="userSpaceOnUse">
<stop stop-color="white" stop-opacity="0.8"/>
<stop offset="1" stop-color="#011917" stop-opacity="0"/>
</linearGradient>
</defs>
</svg>
