<svg width="54" height="14" viewBox="0 0 54 14" fill="none" xmlns="http://www.w3.org/2000/svg">
<rect y="4.4375" width="5.91667" height="5.91667" fill="#BCEA3E"/>
<path d="M13.9271 11.1387C12.733 11.1387 11.8181 10.8806 11.1825 10.3644C10.547 9.8444 10.2292 9.10097 10.2292 8.13411H12.4999C12.5192 8.48465 12.6579 8.75814 12.9159 8.95459C13.174 9.14719 13.5207 9.24349 13.956 9.24349C14.3335 9.24349 14.6378 9.17415 14.8689 9.03548C15.1039 8.89296 15.2214 8.70999 15.2214 8.48657C15.2214 8.27856 15.1077 8.10908 14.8805 7.97811C14.6532 7.84714 14.2969 7.73543 13.8115 7.64299L12.9564 7.4812C12.1243 7.32327 11.4888 7.03052 11.0496 6.60295C10.6105 6.17537 10.391 5.64187 10.391 5.00244C10.391 4.45546 10.5393 3.97588 10.8359 3.56372C11.1325 3.15156 11.5446 2.82992 12.0723 2.5988C12.6001 2.36768 13.2125 2.25212 13.9097 2.25212C14.9845 2.25212 15.83 2.50442 16.4463 3.00903C17.0665 3.51364 17.39 4.21663 17.417 5.118H15.2098C15.1828 4.81755 15.0557 4.58065 14.8285 4.40731C14.605 4.23397 14.3142 4.1473 13.956 4.1473C13.617 4.1473 13.3397 4.21663 13.1239 4.35531C12.9121 4.49398 12.8062 4.67117 12.8062 4.88688C12.8062 5.09104 12.9082 5.25475 13.1124 5.37801C13.3165 5.49742 13.642 5.59758 14.0889 5.67847L14.7822 5.80558C15.7722 5.98663 16.4887 6.27745 16.9316 6.67806C17.3746 7.07482 17.5961 7.61795 17.5961 8.30745C17.5961 9.20882 17.2764 9.90603 16.637 10.3991C15.9975 10.8921 15.0942 11.1387 13.9271 11.1387ZM20.9046 11.1387C20.2536 11.1387 19.6835 11.0058 19.1943 10.74C18.7051 10.4742 18.3238 10.1025 18.0503 9.62484C17.7806 9.14334 17.6458 8.5848 17.6458 7.94922C17.6458 7.31364 17.7806 6.75703 18.0503 6.27938C18.3238 5.79788 18.7051 5.42424 19.1943 5.15845C19.6835 4.89266 20.2536 4.75977 20.9046 4.75977C21.5016 4.75977 22.0313 4.8734 22.4935 5.10067C22.9558 5.32408 23.3217 5.63609 23.5914 6.0367C23.861 6.43731 24.0054 6.90148 24.0247 7.4292H21.8175C21.7983 7.15571 21.7097 6.94192 21.5517 6.78784C21.3976 6.62991 21.1973 6.55094 20.9508 6.55094C20.6465 6.55094 20.4077 6.67421 20.2343 6.92074C20.0649 7.16726 19.9801 7.51009 19.9801 7.94922C19.9801 8.38449 20.0649 8.72732 20.2343 8.9777C20.4077 9.22423 20.6465 9.34749 20.9508 9.34749C21.1973 9.34749 21.3976 9.2666 21.5517 9.10482C21.7097 8.94303 21.7983 8.72347 21.8175 8.44613H24.0247C24.0247 8.97385 23.8918 9.43994 23.626 9.8444C23.3602 10.2489 22.9924 10.5667 22.5224 10.7978C22.0563 11.025 21.5171 11.1387 20.9046 11.1387ZM26.1718 11.1098C25.5593 11.1098 25.0586 10.9615 24.6695 10.6649C24.2843 10.3683 24.0917 9.91759 24.0917 9.31283C24.0917 8.85829 24.1957 8.49428 24.4037 8.22078C24.6118 7.94344 24.8929 7.73736 25.2473 7.60254C25.6017 7.46772 25.9985 7.38683 26.4376 7.35986C26.9769 7.3252 27.3582 7.26934 27.5816 7.1923C27.8051 7.11526 27.9168 6.99392 27.9168 6.82829V6.80518C27.9168 6.67036 27.8532 6.56443 27.7261 6.48739C27.6028 6.40649 27.4353 6.36605 27.2234 6.36605C26.7573 6.36605 26.5031 6.55094 26.4607 6.92074H24.346C24.396 6.22738 24.6695 5.69387 25.1664 5.32023C25.6633 4.94659 26.3798 4.75977 27.3159 4.75977C28.2596 4.75977 28.9761 4.94659 29.4653 5.32023C29.9583 5.69387 30.2048 6.22738 30.2048 6.92074V11H27.9514V10.1449H27.9283C27.728 10.5069 27.4815 10.7593 27.1887 10.9018C26.8998 11.0404 26.5609 11.1098 26.1718 11.1098ZM26.9229 9.67106C27.1733 9.67106 27.4044 9.5998 27.6163 9.45728C27.832 9.31475 27.9399 9.10867 27.9399 8.83903V8.35368C27.7203 8.43072 27.4122 8.50391 27.0154 8.57324C26.7804 8.61176 26.5936 8.68302 26.4549 8.78703C26.3201 8.88718 26.2527 9.01622 26.2527 9.17415C26.2527 9.32823 26.3143 9.44957 26.4376 9.53817C26.5647 9.62676 26.7265 9.67106 26.9229 9.67106ZM32.9182 2.39079V11H30.607V2.39079H32.9182ZM33.3203 11V4.89844H35.6315V11H33.3203ZM34.4702 4.49398C34.1081 4.49398 33.8115 4.38997 33.5804 4.18197C33.3531 3.97396 33.2395 3.70624 33.2395 3.37883C33.2395 3.05526 33.3531 2.7914 33.5804 2.58724C33.8115 2.37923 34.1081 2.27523 34.4702 2.27523C34.8323 2.27523 35.1269 2.37923 35.3542 2.58724C35.5853 2.7914 35.7009 3.05526 35.7009 3.37883C35.7009 3.70624 35.5853 3.97396 35.3542 4.18197C35.1269 4.38997 34.8323 4.49398 34.4702 4.49398ZM39.044 11.1387C38.4123 11.1387 37.8518 11.0039 37.3626 10.7342C36.8734 10.4607 36.4902 10.0832 36.2128 9.60173C35.9393 9.12023 35.8026 8.56939 35.8026 7.94922C35.8026 7.3252 35.9393 6.77436 36.2128 6.29671C36.4863 5.81521 36.8619 5.43964 37.3395 5.17C37.821 4.89651 38.3738 4.75977 38.9978 4.75977C39.6218 4.75977 40.1746 4.89266 40.6561 5.15845C41.1376 5.42424 41.5132 5.7921 41.7828 6.26204C42.0563 6.73199 42.193 7.27319 42.193 7.88566V8.50391H38.0444C38.0521 8.82747 38.1523 9.07978 38.3449 9.26082C38.5375 9.44187 38.8014 9.53239 39.1365 9.53239C39.383 9.53239 39.5929 9.48617 39.7663 9.39372C39.9435 9.30127 40.0629 9.17223 40.1245 9.00659H42.1699C42.0967 9.42261 41.9138 9.79047 41.621 10.1102C41.3283 10.4299 40.9585 10.6822 40.5116 10.8671C40.0687 11.0481 39.5795 11.1387 39.044 11.1387ZM38.0618 7.20964H40.061C40.0224 6.95926 39.9165 6.76473 39.7432 6.62606C39.5698 6.48353 39.3426 6.41227 39.0614 6.41227C38.7802 6.41227 38.5529 6.48353 38.3796 6.62606C38.2062 6.76473 38.1003 6.95926 38.0618 7.20964ZM44.6521 7.76432V11H42.3409V4.89844H44.6233V5.91536C44.8274 5.56483 45.0893 5.28556 45.4091 5.07756C45.7288 4.8657 46.1275 4.75977 46.6051 4.75977C47.2831 4.75977 47.7954 4.97548 48.1421 5.4069C48.4887 5.83447 48.6621 6.41612 48.6621 7.15186V11H46.3509V7.67188C46.3509 7.36372 46.2777 7.12682 46.1313 6.96118C45.9849 6.79555 45.775 6.71273 45.5015 6.71273C44.9353 6.71273 44.6521 7.06326 44.6521 7.76432ZM53.2822 4.89844V6.65495H52.0226V8.76969C52.0226 8.95074 52.0572 9.07593 52.1266 9.14526C52.1998 9.21075 52.3423 9.24349 52.5541 9.24349H53.2822V11H52.011C51.2098 11 50.6262 10.8556 50.2603 10.5667C49.8943 10.2739 49.7114 9.80973 49.7114 9.17415V6.65495H48.6829V4.89844H49.7114V3.23438H52.0226V4.89844H53.2822Z" fill="white"/>
</svg>
