<svg width="28" height="28" viewBox="0 0 28 28" fill="none" xmlns="http://www.w3.org/2000/svg">
<path d="M23.3337 8.10866V19.892C23.147 19.857 22.9487 19.8337 22.7503 19.8337C21.1403 19.8337 19.8337 21.1403 19.8337 22.7503C19.8337 22.9487 19.857 23.147 19.892 23.3337H8.10866C8.14366 23.147 8.16699 22.9487 8.16699 22.7503C8.16699 21.1403 6.86033 19.8337 5.25033 19.8337C5.05199 19.8337 4.85366 19.857 4.66699 19.892V8.10866C4.85366 8.14366 5.05199 8.16699 5.25033 8.16699C6.86033 8.16699 8.16699 6.86033 8.16699 5.25033C8.16699 5.05199 8.14366 4.85366 8.10866 4.66699H19.892C19.857 4.85366 19.8337 5.05199 19.8337 5.25033C19.8337 6.86033 21.1403 8.16699 22.7503 8.16699C22.9487 8.16699 23.147 8.14366 23.3337 8.10866Z" stroke="white" stroke-width="1.5" stroke-linecap="round" stroke-linejoin="round"/>
<path d="M8.16634 5.24967C8.16634 6.85967 6.85967 8.16634 5.24967 8.16634C5.05134 8.16634 4.85301 8.14301 4.66634 8.10801C3.33634 7.83967 2.33301 6.66134 2.33301 5.24967C2.33301 3.63967 3.63967 2.33301 5.24967 2.33301C6.66134 2.33301 7.83967 3.33634 8.10801 4.66634C8.14301 4.85301 8.16634 5.05134 8.16634 5.24967Z" stroke="white" stroke-width="1.5" stroke-linecap="round" stroke-linejoin="round"/>
<path d="M25.6663 5.24967C25.6663 6.66134 24.663 7.83967 23.333 8.10801C23.1463 8.14301 22.948 8.16634 22.7497 8.16634C21.1397 8.16634 19.833 6.85967 19.833 5.24967C19.833 5.05134 19.8563 4.85301 19.8913 4.66634C20.1597 3.33634 21.338 2.33301 22.7497 2.33301C24.3597 2.33301 25.6663 3.63967 25.6663 5.24967Z" stroke="white" stroke-width="1.5" stroke-linecap="round" stroke-linejoin="round"/>
<path d="M8.16634 22.7497C8.16634 22.948 8.14301 23.1463 8.10801 23.333C7.83967 24.663 6.66134 25.6663 5.24967 25.6663C3.63967 25.6663 2.33301 24.3597 2.33301 22.7497C2.33301 21.338 3.33634 20.1597 4.66634 19.8913C4.85301 19.8563 5.05134 19.833 5.24967 19.833C6.85967 19.833 8.16634 21.1397 8.16634 22.7497Z" stroke="white" stroke-width="1.5" stroke-linecap="round" stroke-linejoin="round"/>
<path d="M25.6663 22.7497C25.6663 24.3597 24.3597 25.6663 22.7497 25.6663C21.338 25.6663 20.1597 24.663 19.8913 23.333C19.8563 23.1463 19.833 22.948 19.833 22.7497C19.833 21.1397 21.1397 19.833 22.7497 19.833C22.948 19.833 23.1463 19.8563 23.333 19.8913C24.663 20.1597 25.6663 21.338 25.6663 22.7497Z" stroke="white" stroke-width="1.5" stroke-linecap="round" stroke-linejoin="round"/>
</svg>
