<svg width="143" height="24" viewBox="0 0 143 24" fill="none" xmlns="http://www.w3.org/2000/svg">
<path d="M21.4254 18.3085H28.8239L10.4962 0H3.09766L21.4254 18.3085Z" fill="white" fill-opacity="0.5"/>
<path d="M14.2969 9.36689e-07L31.9644 17.6491V0H27.1833V5.57215L21.6053 0L14.2969 9.36689e-07Z" fill="white" fill-opacity="0.5"/>
<path d="M0 0.613281V18.3088H4.78114V12.7366L10.3591 18.3088H17.7141L0 0.613281Z" fill="white" fill-opacity="0.5"/>
<path d="M43.5017 15.5556H47.7856V18.0774H40.2314V4.66602H43.5017V15.5556Z" fill="white" fill-opacity="0.5"/>
<path d="M53.6299 18.2297C52.5844 18.2297 51.6409 18.0068 50.7995 17.561C49.9707 17.1152 49.3141 16.4784 48.8296 15.6506C48.3579 14.8227 48.1221 13.8547 48.1221 12.7466C48.1221 11.6514 48.3642 10.6897 48.8488 9.86191C49.3333 9.02125 49.9962 8.3781 50.8377 7.93233C51.6792 7.48656 52.6227 7.26367 53.6682 7.26367C54.7137 7.26367 55.6571 7.48656 56.4986 7.93233C57.3401 8.3781 58.003 9.02125 58.4875 9.86191C58.9721 10.6897 59.2142 11.6514 59.2142 12.7466C59.2142 13.842 58.9657 14.8099 58.4684 15.6506C57.984 16.4784 57.3145 17.1152 56.4603 17.561C55.6189 18.0068 54.6753 18.2297 53.6299 18.2297ZM53.6299 15.4022C54.2547 15.4022 54.7838 15.1729 55.2172 14.7144C55.6635 14.2559 55.8866 13.6001 55.8866 12.7466C55.8866 11.8933 55.6699 11.2374 55.2364 10.7789C54.8156 10.3204 54.2929 10.0912 53.6682 10.0912C53.0307 10.0912 52.5015 10.3204 52.0809 10.7789C51.6601 11.2247 51.4497 11.8806 51.4497 12.7466C51.4497 13.6001 51.6537 14.2559 52.0617 14.7144C52.4825 15.1729 53.0052 15.4022 53.6299 15.4022Z" fill="white" fill-opacity="0.5"/>
<path d="M64.7046 7C65.4569 7 66.1135 7.15283 66.6745 7.45851C67.2482 7.76418 67.6881 8.1654 67.9941 8.66209V7.15283H71.2644V17.7941C71.2644 18.7748 71.0667 19.6599 70.6715 20.4496C70.289 21.2519 69.6961 21.8888 68.8929 22.36C68.1025 22.8313 67.1143 23.0669 65.9286 23.0669C64.3476 23.0669 63.0663 22.6912 62.0846 21.9397C61.1029 21.201 60.5419 20.1949 60.4016 18.9212H63.6337C63.7357 19.3288 63.9779 19.6472 64.3604 19.8764C64.7429 20.1184 65.2146 20.2394 65.7757 20.2394C66.4514 20.2394 66.9868 20.0421 67.3821 19.6472C67.79 19.2651 67.9941 18.6474 67.9941 17.7941V16.2848C67.6753 16.7815 67.2355 17.1891 66.6745 17.5075C66.1135 17.8131 65.4569 17.966 64.7046 17.966C63.825 17.966 63.028 17.7432 62.3141 17.2973C61.6001 16.8388 61.0327 16.1957 60.612 15.3678C60.204 14.5272 60 13.5593 60 12.4639C60 11.3686 60.204 10.407 60.612 9.5791C61.0327 8.75129 61.6001 8.11443 62.3141 7.66866C63.028 7.22288 63.825 7 64.7046 7ZM67.9941 12.483C67.9941 11.6679 67.7646 11.0247 67.3056 10.5534C66.8594 10.0822 66.3111 9.84654 65.6609 9.84654C65.0107 9.84654 64.4561 10.0822 63.9971 10.5534C63.5508 11.0119 63.3277 11.6488 63.3277 12.4639C63.3277 13.2791 63.5508 13.9286 63.9971 14.4126C64.4561 14.8839 65.0107 15.1194 65.6609 15.1194C66.3111 15.1194 66.8594 14.8839 67.3056 14.4126C67.7646 13.9413 67.9941 13.2981 67.9941 12.483Z" fill="white" fill-opacity="0.5"/>
<path d="M77.6387 18.2297C76.5932 18.2297 75.6498 18.0068 74.8083 17.561C73.9796 17.1152 73.3229 16.4784 72.8385 15.6506C72.3667 14.8227 72.1309 13.8547 72.1309 12.7466C72.1309 11.6514 72.3731 10.6897 72.8576 9.86191C73.3421 9.02125 74.005 8.3781 74.8466 7.93233C75.688 7.48656 76.6315 7.26367 77.6769 7.26367C78.7224 7.26367 79.666 7.48656 80.5074 7.93233C81.3489 8.3781 82.0119 9.02125 82.4963 9.86191C82.9809 10.6897 83.2231 11.6514 83.2231 12.7466C83.2231 13.842 82.9745 14.8099 82.4773 15.6506C81.9927 16.4784 81.3234 17.1152 80.4692 17.561C79.6276 18.0068 78.6842 18.2297 77.6387 18.2297ZM77.6387 15.4022C78.2635 15.4022 78.7926 15.1729 79.226 14.7144C79.6723 14.2559 79.8955 13.6001 79.8955 12.7466C79.8955 11.8933 79.6787 11.2374 79.2452 10.7789C78.8244 10.3204 78.3018 10.0912 77.6769 10.0912C77.0395 10.0912 76.5104 10.3204 76.0896 10.7789C75.6689 11.2247 75.4585 11.8806 75.4585 12.7466C75.4585 13.6001 75.6626 14.2559 76.0705 14.7144C76.4913 15.1729 77.014 15.4022 77.6387 15.4022Z" fill="white" fill-opacity="0.5"/>
<path d="M86.0298 6.30876C85.4561 6.30876 84.9843 6.14318 84.6145 5.81204C84.2576 5.46815 84.0791 5.04786 84.0791 4.55114C84.0791 4.04168 84.2576 3.62138 84.6145 3.29024C84.9843 2.94636 85.4561 2.77441 86.0298 2.77441C86.5908 2.77441 87.0498 2.94636 87.4068 3.29024C87.7765 3.62138 87.9614 4.04168 87.9614 4.55114C87.9614 5.04786 87.7765 5.46815 87.4068 5.81204C87.0498 6.14318 86.5908 6.30876 86.0298 6.30876ZM87.6553 7.41682V18.0771H84.385V7.41682H87.6553Z" fill="white" fill-opacity="0.5"/>
<path d="M92.7213 8.92673C93.0405 8.43005 93.4801 8.02883 94.0409 7.72316C94.6017 7.41748 95.2587 7.26465 96.011 7.26465C96.8911 7.26465 97.6878 7.48753 98.4013 7.9333C99.1157 8.37907 99.6765 9.01594 100.085 9.84375C100.506 10.6717 100.716 11.6332 100.716 12.7286C100.716 13.8239 100.506 14.7919 100.085 15.6324C99.6765 16.4603 99.1157 17.1034 98.4013 17.562C97.6878 18.0078 96.8911 18.2307 96.011 18.2307C95.2716 18.2307 94.6146 18.0778 94.0409 17.7722C93.4801 17.4665 93.0405 17.0716 92.7213 16.5876V23.1596H89.4512V7.41748H92.7213V8.92673ZM97.388 12.7286C97.388 11.9134 97.1585 11.2766 96.6995 10.8181C96.2535 10.3468 95.6982 10.1112 95.0357 10.1112C94.3851 10.1112 93.8308 10.3468 93.3718 10.8181C92.9258 11.2893 92.7028 11.9326 92.7028 12.7476C92.7028 13.5628 92.9258 14.206 93.3718 14.6772C93.8308 15.1485 94.3851 15.384 95.0357 15.384C95.6862 15.384 96.2405 15.1485 96.6995 14.6772C97.1585 14.1932 97.388 13.5437 97.388 12.7286Z" fill="white" fill-opacity="0.5"/>
<path d="M106.199 18.2297C105.268 18.2297 104.44 18.0705 103.713 17.7521C102.986 17.4337 102.412 17.0006 101.992 16.453C101.571 15.8926 101.335 15.2684 101.284 14.5807H104.517C104.554 14.9501 104.727 15.2494 105.033 15.4786C105.338 15.7079 105.715 15.8225 106.161 15.8225C106.569 15.8225 106.881 15.7461 107.098 15.5933C107.328 15.4277 107.443 15.2175 107.443 14.9628C107.443 14.6571 107.283 14.4342 106.964 14.2941C106.645 14.1413 106.129 13.9757 105.415 13.7974C104.65 13.6191 104.012 13.4344 103.502 13.2434C102.992 13.0396 102.553 12.7276 102.183 12.3073C101.813 11.8743 101.628 11.2948 101.628 10.5687C101.628 9.9574 101.794 9.4034 102.125 8.90662C102.47 8.39721 102.967 7.99601 103.617 7.70307C104.281 7.41014 105.064 7.26367 105.969 7.26367C107.308 7.26367 108.361 7.59482 109.125 8.25711C109.903 8.91938 110.349 9.79822 110.464 10.8936H107.443C107.391 10.5242 107.225 10.2312 106.945 10.0147C106.677 9.79822 106.32 9.68997 105.874 9.68997C105.492 9.68997 105.199 9.76633 104.994 9.91922C104.79 10.0593 104.689 10.2567 104.689 10.5114C104.689 10.8171 104.848 11.0464 105.166 11.1992C105.497 11.3521 106.008 11.5049 106.697 11.6577C107.487 11.8615 108.131 12.0653 108.628 12.2691C109.125 12.4601 109.559 12.7785 109.928 13.2243C110.311 13.6574 110.508 14.2432 110.521 14.9819C110.521 15.606 110.343 16.1664 109.986 16.6631C109.641 17.1471 109.138 17.5292 108.475 17.8094C107.825 18.0896 107.066 18.2297 106.199 18.2297Z" fill="white" fill-opacity="0.5"/>
<path d="M122.485 7.41699V18.0773H119.215V16.6254C118.884 17.0967 118.431 17.4787 117.857 17.7717C117.297 18.0519 116.672 18.1919 115.983 18.1919C115.167 18.1919 114.446 18.0137 113.822 17.6571C113.197 17.2877 112.713 16.7591 112.369 16.0713C112.025 15.3836 111.853 14.5749 111.853 13.6451V7.41699H115.103V13.2056C115.103 13.9189 115.288 14.4729 115.658 14.8677C116.028 15.2626 116.525 15.46 117.149 15.46C117.787 15.46 118.29 15.2626 118.661 14.8677C119.031 14.4729 119.215 13.9189 119.215 13.2056V7.41699H122.485Z" fill="white" fill-opacity="0.5"/>
<path d="M137.877 7.30273C139.203 7.30273 140.255 7.70393 141.032 8.50628C141.824 9.30867 142.219 10.4231 142.219 11.8496V18.0777H138.967V12.289C138.967 11.6012 138.783 11.0727 138.413 10.7033C138.055 10.3213 137.558 10.1302 136.921 10.1302C136.283 10.1302 135.78 10.3213 135.41 10.7033C135.053 11.0727 134.875 11.6012 134.875 12.289V18.0777H131.623V12.289C131.623 11.6012 131.439 11.0727 131.069 10.7033C130.712 10.3213 130.215 10.1302 129.577 10.1302C128.939 10.1302 128.436 10.3213 128.066 10.7033C127.71 11.0727 127.531 11.6012 127.531 12.289V18.0777H124.261V7.41736H127.531V8.75467C127.862 8.30891 128.295 7.95866 128.831 7.70393C129.367 7.43647 129.972 7.30273 130.648 7.30273C131.451 7.30273 132.165 7.47468 132.79 7.81856C133.428 8.16244 133.924 8.6528 134.282 9.28963C134.652 8.70374 135.155 8.22612 135.793 7.85677C136.43 7.48741 137.125 7.30273 137.877 7.30273Z" fill="white" fill-opacity="0.5"/>
</svg>
