<svg width="34" height="34" viewBox="0 0 34 34" fill="none" xmlns="http://www.w3.org/2000/svg">
<path d="M22.6663 11.333H11.333V22.6663H22.6663V11.333Z" stroke="#111616" stroke-width="1.5" stroke-linecap="round" stroke-linejoin="round"/>
<path d="M7.08301 31.167C9.42051 31.167 11.333 29.2545 11.333 26.917V22.667H7.08301C4.74551 22.667 2.83301 24.5795 2.83301 26.917C2.83301 29.2545 4.74551 31.167 7.08301 31.167Z" stroke="#111616" stroke-width="1.5" stroke-linecap="round" stroke-linejoin="round"/>
<path d="M7.08301 11.333H11.333V7.08301C11.333 4.74551 9.42051 2.83301 7.08301 2.83301C4.74551 2.83301 2.83301 4.74551 2.83301 7.08301C2.83301 9.42051 4.74551 11.333 7.08301 11.333Z" stroke="#111616" stroke-width="1.5" stroke-linecap="round" stroke-linejoin="round"/>
<path d="M22.667 11.333H26.917C29.2545 11.333 31.167 9.42051 31.167 7.08301C31.167 4.74551 29.2545 2.83301 26.917 2.83301C24.5795 2.83301 22.667 4.74551 22.667 7.08301V11.333Z" stroke="#111616" stroke-width="1.5" stroke-linecap="round" stroke-linejoin="round"/>
<path d="M26.917 31.167C29.2545 31.167 31.167 29.2545 31.167 26.917C31.167 24.5795 29.2545 22.667 26.917 22.667H22.667V26.917C22.667 29.2545 24.5795 31.167 26.917 31.167Z" stroke="#111616" stroke-width="1.5" stroke-linecap="round" stroke-linejoin="round"/>
</svg>
