<svg width="155" height="29" viewBox="0 0 155 29" fill="none" xmlns="http://www.w3.org/2000/svg">
<mask id="path-1-inside-1_162_298" fill="white">
<path d="M13.156 19.6978C11.3338 21.5291 8.24774 21.5218 7.38589 19.0812C7.21715 18.6033 7.08224 18.112 6.98301 17.6107C6.57786 15.5638 6.7858 13.4421 7.58052 11.5139C8.37524 9.58584 9.72105 7.93782 11.4478 6.77835C13.1745 5.61887 15.2046 5 17.2813 5C19.358 5 21.388 5.61887 23.1147 6.77835C24.8415 7.93782 26.1873 9.58584 26.982 11.514C27.7767 13.4421 27.9846 15.5638 27.5795 17.6107C27.4803 18.112 27.3454 18.6033 27.1766 19.0812C26.3147 21.5218 23.2287 21.5291 21.4065 19.6978L18.5938 16.8711C18.325 16.601 18.3528 16.1556 18.4269 15.7811C18.472 15.5534 18.4488 15.3174 18.3604 15.1029C18.272 14.8884 18.1223 14.705 17.9302 14.576C17.7381 14.4471 17.5123 14.3782 17.2813 14.3782C17.0503 14.3782 16.8244 14.4471 16.6323 14.576C16.4402 14.705 16.2905 14.8884 16.2021 15.1029C16.1137 15.3174 16.0905 15.5534 16.1356 15.7811C16.2098 16.1556 16.2375 16.601 15.9687 16.8711L13.156 19.6978Z"/>
</mask>
<path d="M13.156 19.6978L5.35856 11.9389L5.35852 11.939L13.156 19.6978ZM7.38589 19.0812L17.7582 15.4184L17.7581 15.4183L7.38589 19.0812ZM6.98301 17.6107L-3.80766 19.7465L-3.80764 19.7466L6.98301 17.6107ZM7.58052 11.5139L-2.58947 7.32213L-2.58951 7.32223L7.58052 11.5139ZM11.4478 6.77835L5.31564 -2.35385L5.31558 -2.35381L11.4478 6.77835ZM23.1147 6.77835L16.9825 15.9105L16.9826 15.9106L23.1147 6.77835ZM26.982 11.514L16.812 15.7057L16.812 15.7059L26.982 11.514ZM27.5795 17.6107L38.3702 19.7464L38.3702 19.7463L27.5795 17.6107ZM27.1766 19.0812L16.8046 15.4175L16.8043 15.4184L27.1766 19.0812ZM18.4269 15.7811L29.2176 17.917L29.2179 17.9153L18.4269 15.7811ZM16.6323 14.576L22.7623 23.7097L22.7636 23.7088L16.6323 14.576ZM16.1356 15.7811L26.9263 13.6452L26.926 13.6441L16.1356 15.7811ZM13.156 19.6978L5.35852 11.939C6.53841 10.7532 8.37889 9.85623 10.6839 10.0186C11.9094 10.105 13.3987 10.5154 14.8115 11.5301C16.2782 12.5835 17.2581 14.0022 17.7582 15.4184L7.38589 19.0812L-2.98638 22.744C-0.936736 28.5481 4.16117 31.6136 9.13771 31.9642C13.6568 32.2826 17.9513 30.4737 20.9534 27.4567L13.156 19.6978ZM7.38589 19.0812L17.7581 15.4183C17.7648 15.4371 17.7699 15.456 17.7737 15.4749L6.98301 17.6107L-3.80764 19.7466C-3.60546 20.768 -3.33046 21.7696 -2.98637 22.744L7.38589 19.0812ZM6.98301 17.6107L17.7737 15.475C17.7887 15.5511 17.7815 15.6306 17.7506 15.7057L7.58052 11.5139L-2.58951 7.32223C-4.20989 11.2536 -4.63301 15.5765 -3.80766 19.7465L6.98301 17.6107ZM7.58052 11.5139L17.7505 15.7058C17.7193 15.7814 17.6629 15.8548 17.5799 15.9105L11.4478 6.77835L5.31558 -2.35381C1.7792 0.0208478 -0.968857 3.39028 -2.58947 7.32213L7.58052 11.5139ZM11.4478 6.77835L17.5799 15.9105C17.4963 15.9666 17.3923 16 17.2813 16L17.2813 5V-6C13.0168 -6 8.85266 -4.7289 5.31564 -2.35385L11.4478 6.77835ZM17.2813 5L17.2813 16C17.1702 16 17.0662 15.9667 16.9825 15.9105L23.1147 6.77835L29.247 -2.35376C25.7099 -4.72892 21.5457 -6 17.2813 -6V5ZM23.1147 6.77835L16.9826 15.9106C16.8996 15.8548 16.8431 15.7813 16.812 15.7057L26.982 11.514L37.152 7.32228C35.5314 3.39035 32.7834 0.0208492 29.2468 -2.35386L23.1147 6.77835ZM26.982 11.514L16.812 15.7059C16.781 15.6305 16.7738 15.551 16.7888 15.4751L27.5795 17.6107L38.3702 19.7463C39.1954 15.5766 38.7725 11.2537 37.152 7.32216L26.982 11.514ZM27.5795 17.6107L16.7888 15.475C16.7926 15.456 16.7978 15.4367 16.8046 15.4175L27.1766 19.0812L37.5485 22.7448C37.8929 21.7699 38.168 20.768 38.3702 19.7464L27.5795 17.6107ZM27.1766 19.0812L16.8043 15.4184C17.3044 14.0023 18.2843 12.5835 19.7509 11.5302C21.1638 10.5155 22.6531 10.105 23.8786 10.0186C26.1836 9.85622 28.0241 10.7532 29.2039 11.9389L21.4065 19.6978L13.6091 27.4567C16.6112 30.4737 20.9057 32.2826 25.4248 31.9642C30.4014 31.6136 35.4992 28.5481 37.5489 22.7439L27.1766 19.0812ZM21.4065 19.6978L29.2039 11.9389L26.3911 9.11219L18.5938 16.8711L10.7964 24.63L13.6091 27.4567L21.4065 19.6978ZM18.5938 16.8711L26.3911 9.11219C28.6542 11.3864 29.2113 13.9861 29.3369 15.373C29.457 16.699 29.2651 17.6766 29.2176 17.917L18.4269 15.7811L7.63628 13.6452C7.51456 14.2601 7.27174 15.6477 7.42661 17.3575C7.58699 19.1283 8.26462 22.0857 10.7964 24.63L18.5938 16.8711ZM18.4269 15.7811L29.2179 17.9153C29.6826 15.5656 29.4446 13.1288 28.5303 10.9109L18.3604 15.1029L8.19048 19.2948C7.4531 17.5059 7.26129 15.5412 7.63595 13.6468L18.4269 15.7811ZM18.3604 15.1029L28.5303 10.9109C27.6166 8.69411 26.0652 6.78847 24.0615 5.4433L17.9302 14.576L11.7989 23.7088C10.1794 22.6215 8.92739 21.0826 8.19048 19.2948L18.3604 15.1029ZM17.9302 14.576L24.0615 5.4433C22.0601 4.09962 19.7006 3.37821 17.2813 3.37821V14.3782V25.3782C15.324 25.3782 13.4162 24.7945 11.7989 23.7088L17.9302 14.576ZM17.2813 14.3782V3.37821C14.8619 3.37821 12.5025 4.09961 10.501 5.4433L16.6323 14.576L22.7636 23.7088C21.1464 24.7945 19.2386 25.3782 17.2813 25.3782V14.3782ZM16.6323 14.576L10.5023 5.4424C8.49769 6.78781 6.94596 8.69392 6.03214 10.9109L16.2021 15.1029L26.372 19.2948C25.635 21.0828 24.3827 22.6222 22.7623 23.7097L16.6323 14.576ZM16.2021 15.1029L6.03214 10.9109C5.11793 13.1288 4.87949 15.5666 5.3452 17.9181L16.1356 15.7811L26.926 13.6441C27.3016 15.5402 27.1094 17.5059 26.372 19.2948L16.2021 15.1029ZM16.1356 15.7811L5.34498 17.917C5.29728 17.676 5.10546 16.6983 5.22567 15.3722C5.35141 13.9852 5.90872 11.386 8.17134 9.11219L15.9687 16.8711L23.7661 24.63C26.2975 22.0861 26.9753 19.1292 27.1358 17.3584C27.2908 15.6484 27.0481 14.2607 26.9263 13.6452L16.1356 15.7811ZM15.9687 16.8711L8.17134 9.11219L5.35856 11.9389L13.156 19.6978L20.9533 27.4567L23.7661 24.63L15.9687 16.8711Z" fill="white" fill-opacity="0.5" mask="url(#path-1-inside-1_162_298)"/>
<path d="M40.4138 18.8363H45.0391V21.562H36.8828V7.06641H40.4138V18.8363Z" fill="white" fill-opacity="0.5"/>
<path d="M51.3492 21.7275C50.2204 21.7275 49.2017 21.4866 48.2931 21.0048C47.3984 20.523 46.6894 19.8347 46.1663 18.9399C45.657 18.0451 45.4023 16.9989 45.4023 15.8012C45.4023 14.6174 45.6638 13.578 46.1869 12.6832C46.7101 11.7747 47.4259 11.0795 48.3344 10.5977C49.243 10.1159 50.2617 9.875 51.3905 9.875C52.5193 9.875 53.538 10.1159 54.4465 10.5977C55.3551 11.0795 56.0709 11.7747 56.594 12.6832C57.1171 13.578 57.3787 14.6174 57.3787 15.8012C57.3787 16.9851 57.1102 18.0313 56.5734 18.9399C56.0503 19.8347 55.3276 20.523 54.4052 21.0048C53.4967 21.4866 52.478 21.7275 51.3492 21.7275ZM51.3492 18.6714C52.0237 18.6714 52.595 18.4237 53.0631 17.9281C53.5449 17.4325 53.7858 16.7236 53.7858 15.8012C53.7858 14.8789 53.5517 14.17 53.0837 13.6744C52.6294 13.1788 52.065 12.931 51.3905 12.931C50.7022 12.931 50.1309 13.1788 49.6766 13.6744C49.2223 14.1562 48.9952 14.8651 48.9952 15.8012C48.9952 16.7236 49.2155 17.4325 49.656 17.9281C50.1103 18.4237 50.6747 18.6714 51.3492 18.6714Z" fill="white" fill-opacity="0.5"/>
<path d="M63.0093 9.875C63.8215 9.875 64.5305 10.0402 65.1362 10.3706C65.7556 10.7009 66.2306 11.1346 66.561 11.6714V10.0402H70.0919V21.5416C70.0919 22.6016 69.8786 23.5584 69.4518 24.4118C69.0388 25.2791 68.3987 25.9674 67.5315 26.4767C66.678 26.9861 65.6111 27.2408 64.3309 27.2408C62.6239 27.2408 61.2404 26.8347 60.1804 26.0225C59.1205 25.224 58.5147 24.1365 58.3633 22.7599H61.853C61.9631 23.2004 62.2247 23.5446 62.6377 23.7924C63.0506 24.0539 63.56 24.1847 64.1657 24.1847C64.8953 24.1847 65.4734 23.9713 65.9002 23.5446C66.3407 23.1316 66.561 22.464 66.561 21.5416V19.9104C66.2168 20.4472 65.7419 20.8878 65.1362 21.2319C64.5305 21.5623 63.8215 21.7275 63.0093 21.7275C62.0595 21.7275 61.1991 21.4866 60.4282 21.0048C59.6573 20.5092 59.0447 19.814 58.5905 18.9192C58.15 18.0107 57.9297 16.9645 57.9297 15.7806C57.9297 14.5967 58.15 13.5574 58.5905 12.6626C59.0447 11.7678 59.6573 11.0795 60.4282 10.5977C61.1991 10.1159 62.0595 9.875 63.0093 9.875ZM66.561 15.8012C66.561 14.9202 66.3132 14.225 65.8176 13.7157C65.3358 13.2064 64.7438 12.9517 64.0418 12.9517C63.3397 12.9517 62.7409 13.2064 62.2453 13.7157C61.7635 14.2113 61.5226 14.8996 61.5226 15.7806C61.5226 16.6616 61.7635 17.3637 62.2453 17.8868C62.7409 18.3961 63.3397 18.6508 64.0418 18.6508C64.7438 18.6508 65.3358 18.3961 65.8176 17.8868C66.3132 17.3774 66.561 16.6823 66.561 15.8012Z" fill="white" fill-opacity="0.5"/>
<path d="M77.2711 21.7275C76.1423 21.7275 75.1236 21.4866 74.2151 21.0048C73.3203 20.523 72.6113 19.8347 72.0882 18.9399C71.5789 18.0451 71.3242 16.9989 71.3242 15.8012C71.3242 14.6174 71.5857 13.578 72.1089 12.6832C72.632 11.7747 73.3478 11.0795 74.2563 10.5977C75.1649 10.1159 76.1836 9.875 77.3124 9.875C78.4412 9.875 79.4599 10.1159 80.3684 10.5977C81.277 11.0795 81.9928 11.7747 82.5159 12.6832C83.039 13.578 83.3006 14.6174 83.3006 15.8012C83.3006 16.9851 83.0322 18.0313 82.4953 18.9399C81.9722 19.8347 81.2495 20.523 80.3271 21.0048C79.4186 21.4866 78.3999 21.7275 77.2711 21.7275ZM77.2711 18.6714C77.9456 18.6714 78.5169 18.4237 78.985 17.9281C79.4668 17.4325 79.7077 16.7236 79.7077 15.8012C79.7077 14.8789 79.4736 14.17 79.0056 13.6744C78.5513 13.1788 77.9869 12.931 77.3124 12.931C76.6241 12.931 76.0528 13.1788 75.5985 13.6744C75.1443 14.1562 74.9171 14.8651 74.9171 15.8012C74.9171 16.7236 75.1374 17.4325 75.5779 17.9281C76.0322 18.4237 76.5966 18.6714 77.2711 18.6714Z" fill="white" fill-opacity="0.5"/>
<path d="M86.3328 8.84252C85.7133 8.84252 85.204 8.66356 84.8048 8.30565C84.4193 7.93397 84.2266 7.47969 84.2266 6.94282C84.2266 6.39218 84.4193 5.9379 84.8048 5.57998C85.204 5.2083 85.7133 5.02246 86.3328 5.02246C86.9385 5.02246 87.4341 5.2083 87.8195 5.57998C88.2187 5.9379 88.4183 6.39218 88.4183 6.94282C88.4183 7.47969 88.2187 7.93397 87.8195 8.30565C87.4341 8.66356 86.9385 8.84252 86.3328 8.84252ZM88.0879 10.0402V21.5623H84.557V10.0402H88.0879Z" fill="white" fill-opacity="0.5"/>
<path d="M93.558 11.6714C93.902 11.1346 94.377 10.7009 94.983 10.3706C95.589 10.0402 96.298 9.875 97.11 9.875C98.06 9.875 98.92 10.1159 99.691 10.5977C100.462 11.0795 101.068 11.7678 101.508 12.6626C101.962 13.5574 102.19 14.5967 102.19 15.7806C102.19 16.9645 101.962 18.0107 101.508 18.9192C101.068 19.814 100.462 20.5092 99.691 21.0048C98.92 21.4866 98.06 21.7275 97.11 21.7275C96.311 21.7275 95.603 21.5623 94.983 21.2319C94.377 20.9015 93.902 20.4748 93.558 19.9517V27.0549H90.0273V10.0402H93.558V11.6714ZM98.597 15.7806C98.597 14.8996 98.349 14.2113 97.853 13.7157C97.371 13.2064 96.773 12.9517 96.057 12.9517C95.355 12.9517 94.756 13.2064 94.26 13.7157C93.779 14.225 93.538 14.9202 93.538 15.8012C93.538 16.6823 93.779 17.3774 94.26 17.8868C94.756 18.3961 95.355 18.6508 96.057 18.6508C96.759 18.6508 97.358 18.3961 97.853 17.8868C98.349 17.3637 98.597 16.6616 98.597 15.7806Z" fill="white" fill-opacity="0.5"/>
<path d="M108.108 21.7275C107.103 21.7275 106.208 21.5554 105.423 21.2113C104.639 20.8671 104.019 20.3991 103.565 19.8071C103.111 19.2014 102.856 18.5269 102.801 17.7835H106.291C106.332 18.1827 106.518 18.5062 106.848 18.754C107.179 19.0018 107.585 19.1257 108.067 19.1257C108.507 19.1257 108.844 19.0431 109.078 18.8779C109.326 18.699 109.45 18.4718 109.45 18.1965C109.45 17.8661 109.278 17.6252 108.934 17.4738C108.59 17.3086 108.032 17.1297 107.261 16.9369C106.435 16.7442 105.747 16.5446 105.196 16.3381C104.646 16.1179 104.171 15.7806 103.772 15.3263C103.372 14.8583 103.173 14.2319 103.173 13.4473C103.173 12.7865 103.352 12.1877 103.71 11.6508C104.081 11.1002 104.618 10.6665 105.32 10.3499C106.036 10.0333 106.883 9.875 107.86 9.875C109.305 9.875 110.441 10.2329 111.267 10.9487C112.107 11.6646 112.589 12.6144 112.713 13.7983H109.45C109.395 13.3991 109.216 13.0825 108.913 12.8484C108.624 12.6144 108.239 12.4974 107.757 12.4974C107.344 12.4974 107.027 12.58 106.807 12.7452C106.587 12.8966 106.477 13.11 106.477 13.3853C106.477 13.7157 106.649 13.9635 106.993 14.1287C107.351 14.2939 107.901 14.4591 108.645 14.6242C109.498 14.8445 110.193 15.0648 110.73 15.285C111.267 15.4915 111.735 15.8356 112.134 16.3175C112.547 16.7855 112.761 17.4187 112.775 18.2172C112.775 18.8917 112.582 19.4974 112.196 20.0343C111.825 20.5574 111.281 20.9704 110.565 21.2732C109.863 21.5761 109.044 21.7275 108.108 21.7275Z" fill="white" fill-opacity="0.5"/>
<path d="M125.692 10.04V21.5621H122.161V19.9928C121.803 20.5021 121.314 20.9151 120.695 21.2317C120.089 21.5346 119.415 21.686 118.671 21.686C117.79 21.686 117.012 21.4933 116.338 21.1078C115.663 20.7086 115.14 20.1373 114.769 19.394C114.397 18.6506 114.211 17.7765 114.211 16.7715V10.04H117.721V16.2966C117.721 17.0675 117.921 17.6663 118.32 18.0931C118.719 18.5198 119.256 18.7332 119.931 18.7332C120.619 18.7332 121.163 18.5198 121.562 18.0931C121.961 17.6663 122.161 17.0675 122.161 16.2966V10.04H125.692Z" fill="white" fill-opacity="0.5"/>
<path d="M142.311 9.91602C143.742 9.91602 144.878 10.3496 145.718 11.2169C146.571 12.0841 146.998 13.2886 146.998 14.8304V21.562H143.488V15.3054C143.488 14.562 143.288 13.9907 142.889 13.5915C142.503 13.1785 141.967 12.972 141.278 12.972C140.59 12.972 140.046 13.1785 139.647 13.5915C139.262 13.9907 139.069 14.562 139.069 15.3054V21.562H135.558V15.3054C135.558 14.562 135.359 13.9907 134.96 13.5915C134.574 13.1785 134.037 12.972 133.349 12.972C132.661 12.972 132.117 13.1785 131.718 13.5915C131.332 13.9907 131.14 14.562 131.14 15.3054V21.562H127.609V10.0399H131.14V11.4853C131.498 11.0035 131.966 10.6249 132.544 10.3496C133.122 10.0605 133.776 9.91602 134.505 9.91602C135.373 9.91602 136.144 10.1018 136.818 10.4735C137.506 10.8452 138.043 11.3752 138.429 12.0635C138.828 11.4302 139.372 10.914 140.06 10.5148C140.748 10.1156 141.499 9.91602 142.311 9.91602Z" fill="white" fill-opacity="0.5"/>
</svg>
