<svg width="153" height="38" viewBox="0 0 153 38" fill="none" xmlns="http://www.w3.org/2000/svg">
<path d="M47.2609 9.84052V25.9995H43.6797V9.84052H47.2609ZM44.2474 25.9995L44.3129 22.8332H53.5934V25.9995H44.2474ZM54.1539 20.5185C54.1539 19.3685 54.3941 18.364 54.8745 17.5051C55.3549 16.6316 56.0318 15.9547 56.9053 15.4743C57.7787 14.9939 58.7977 14.7537 59.9624 14.7537C61.127 14.7537 62.1387 14.9939 62.9976 15.4743C63.8711 15.9547 64.548 16.6316 65.0284 17.5051C65.5088 18.364 65.749 19.3685 65.749 20.5185C65.749 21.6686 65.5088 22.6731 65.0284 23.532C64.548 24.3909 63.8711 25.0605 62.9976 25.5409C62.1387 26.0213 61.127 26.2615 59.9624 26.2615C58.7977 26.2615 57.7787 26.0213 56.9053 25.5409C56.0318 25.0605 55.3549 24.3909 54.8745 23.532C54.3941 22.6731 54.1539 21.6686 54.1539 20.5185ZM57.5385 20.4967C57.5385 21.0499 57.6404 21.5376 57.8442 21.9598C58.048 22.3674 58.3319 22.6876 58.6958 22.9206C59.0598 23.1389 59.482 23.2481 59.9624 23.2481C60.4428 23.2481 60.8649 23.1389 61.2289 22.9206C61.5928 22.6876 61.8694 22.3674 62.0587 21.9598C62.2625 21.5376 62.3644 21.0499 62.3644 20.4967C62.3644 19.9435 62.2625 19.4631 62.0587 19.0555C61.8694 18.6479 61.5928 18.3349 61.2289 18.1165C60.8649 17.8836 60.4428 17.7671 59.9624 17.7671C59.482 17.7671 59.0598 17.8836 58.6958 18.1165C58.3319 18.3349 58.048 18.6479 57.8442 19.0555C57.6404 19.4631 57.5385 19.9435 57.5385 20.4967ZM66.5084 20.3439C66.5084 19.2229 66.734 18.2403 67.1853 17.3959C67.6366 16.5516 68.2553 15.8965 69.0414 15.4306C69.8275 14.9502 70.7301 14.71 71.7491 14.71C72.608 14.71 73.365 14.8847 74.0201 15.2341C74.6898 15.5835 75.141 16.0421 75.374 16.6098L75.0464 16.8282L75.3085 15.0813H78.3437V25.3007C78.3437 26.5818 78.0962 27.6882 77.6013 28.6199C77.1063 29.5661 76.4003 30.294 75.4831 30.8035C74.5806 31.313 73.5033 31.5678 72.2513 31.5678C71.2032 31.5678 70.257 31.3567 69.4126 30.9345C68.5828 30.5269 67.9059 29.9446 67.3818 29.1876C66.8723 28.4306 66.5666 27.5572 66.4647 26.5672H69.8712C69.9003 27.1932 70.1478 27.6736 70.6136 28.0085C71.094 28.3433 71.7054 28.5107 72.4479 28.5107C73.2777 28.5107 73.9182 28.2778 74.3695 27.8119C74.8208 27.3606 75.0464 26.7565 75.0464 25.9995V23.6848L75.3521 23.9687C75.1192 24.5365 74.6679 24.995 73.9983 25.3444C73.3286 25.6938 72.5571 25.8685 71.6836 25.8685C70.6791 25.8685 69.7838 25.6356 68.9977 25.1697C68.2262 24.7039 67.6147 24.0561 67.1634 23.2263C66.7267 22.3965 66.5084 21.4357 66.5084 20.3439ZM69.9148 20.2565C69.9148 20.7806 70.024 21.2464 70.2424 21.654C70.4608 22.0617 70.7519 22.3819 71.1159 22.6148C71.4798 22.8332 71.8801 22.9424 72.3169 22.9424C72.8409 22.9424 73.2995 22.8332 73.6926 22.6148C74.1002 22.3819 74.4132 22.0617 74.6315 21.654C74.8644 21.2464 74.9809 20.7806 74.9809 20.2565C74.9809 19.7179 74.8644 19.2593 74.6315 18.8808C74.3986 18.4878 74.0783 18.182 73.6707 17.9637C73.2777 17.7453 72.8191 17.6361 72.295 17.6361C71.8583 17.6361 71.458 17.7453 71.094 17.9637C70.7301 18.182 70.4389 18.4878 70.2206 18.8808C70.0167 19.2739 69.9148 19.7324 69.9148 20.2565ZM79.5422 20.5185C79.5422 19.3685 79.7824 18.364 80.2628 17.5051C80.7432 16.6316 81.4201 15.9547 82.2936 15.4743C83.167 14.9939 84.1861 14.7537 85.3507 14.7537C86.5153 14.7537 87.527 14.9939 88.386 15.4743C89.2594 15.9547 89.9363 16.6316 90.4167 17.5051C90.8971 18.364 91.1373 19.3685 91.1373 20.5185C91.1373 21.6686 90.8971 22.6731 90.4167 23.532C89.9363 24.3909 89.2594 25.0605 88.386 25.5409C87.527 26.0213 86.5153 26.2615 85.3507 26.2615C84.1861 26.2615 83.167 26.0213 82.2936 25.5409C81.4201 25.0605 80.7432 24.3909 80.2628 23.532C79.7824 22.6731 79.5422 21.6686 79.5422 20.5185ZM82.9268 20.4967C82.9268 21.0499 83.0287 21.5376 83.2325 21.9598C83.4363 22.3674 83.7202 22.6876 84.0842 22.9206C84.4481 23.1389 84.8703 23.2481 85.3507 23.2481C85.8311 23.2481 86.2533 23.1389 86.6172 22.9206C86.9811 22.6876 87.2577 22.3674 87.447 21.9598C87.6508 21.5376 87.7527 21.0499 87.7527 20.4967C87.7527 19.9435 87.6508 19.4631 87.447 19.0555C87.2577 18.6479 86.9811 18.3349 86.6172 18.1165C86.2533 17.8836 85.8311 17.7671 85.3507 17.7671C84.8703 17.7671 84.4481 17.8836 84.0842 18.1165C83.7202 18.3349 83.4363 18.6479 83.2325 19.0555C83.0287 19.4631 82.9268 19.9435 82.9268 20.4967ZM92.5518 25.9995V15.0813H95.9364V25.9995H92.5518ZM94.255 13.378C93.7164 13.378 93.2578 13.196 92.8793 12.8321C92.5154 12.4536 92.3334 11.995 92.3334 11.4564C92.3334 10.9178 92.5154 10.4665 92.8793 10.1025C93.2578 9.73861 93.7164 9.55664 94.255 9.55664C94.7791 9.55664 95.2231 9.73861 95.587 10.1025C95.9655 10.4665 96.1548 10.9178 96.1548 11.4564C96.1548 11.995 95.9655 12.4536 95.587 12.8321C95.2231 13.196 94.7791 13.378 94.255 13.378ZM98.125 31.2403V15.0813H101.204L101.378 16.4133C101.684 15.9038 102.172 15.4962 102.841 15.1904C103.511 14.8847 104.232 14.7319 105.003 14.7319C106.022 14.7319 106.91 14.9575 107.667 15.4088C108.424 15.8601 109.021 16.5079 109.458 17.3523C109.894 18.182 110.127 19.1865 110.157 20.3657C110.186 21.5157 109.996 22.5421 109.589 23.4446C109.181 24.3326 108.592 25.0314 107.82 25.5409C107.048 26.0505 106.117 26.3052 105.025 26.3052C104.268 26.3052 103.562 26.1742 102.907 25.9122C102.252 25.6501 101.764 25.3153 101.444 24.9077V31.2403H98.125ZM101.509 20.5404C101.509 21.079 101.618 21.5594 101.837 21.9816C102.07 22.3892 102.383 22.7095 102.776 22.9424C103.183 23.1608 103.649 23.2699 104.173 23.2699C104.712 23.2699 105.171 23.1535 105.549 22.9206C105.942 22.6876 106.241 22.3674 106.444 21.9598C106.663 21.5521 106.772 21.079 106.772 20.5404C106.772 20.0017 106.663 19.5286 106.444 19.121C106.241 18.7134 105.942 18.3931 105.549 18.1602C105.171 17.9273 104.712 17.8108 104.173 17.8108C103.649 17.8108 103.183 17.9273 102.776 18.1602C102.383 18.3786 102.07 18.6916 101.837 19.0992C101.618 19.5068 101.509 19.9872 101.509 20.5404ZM110.733 22.5493H113.769C113.769 22.9278 113.892 23.2263 114.14 23.4446C114.402 23.663 114.78 23.7722 115.275 23.7722C115.566 23.7722 115.807 23.7358 115.996 23.663C116.2 23.5902 116.353 23.4883 116.454 23.3573C116.571 23.2117 116.629 23.0516 116.629 22.8769C116.629 22.6876 116.564 22.5275 116.433 22.3965C116.316 22.2655 116.112 22.1636 115.821 22.0908L113.9 21.5885C112.822 21.2974 112.058 20.8679 111.607 20.3002C111.155 19.7324 110.93 19.0846 110.93 18.3567C110.93 17.6288 111.112 16.9956 111.476 16.457C111.854 15.9038 112.364 15.4816 113.004 15.1904C113.645 14.8847 114.365 14.7319 115.166 14.7319C116.374 14.7319 117.364 15.0667 118.136 15.7364C118.922 16.3914 119.337 17.2867 119.381 18.4222H116.345C116.36 18.0437 116.251 17.7453 116.018 17.5269C115.785 17.294 115.479 17.1776 115.101 17.1776C114.766 17.1776 114.489 17.2649 114.271 17.4396C114.067 17.5997 113.965 17.8254 113.965 18.1165C113.965 18.3931 114.067 18.5969 114.271 18.728C114.475 18.8444 114.751 18.9463 115.101 19.0337L117.044 19.5141C117.947 19.7324 118.631 20.1037 119.097 20.6277C119.563 21.1518 119.795 21.8215 119.795 22.6367C119.795 23.7576 119.381 24.6456 118.551 25.3007C117.721 25.9558 116.644 26.2834 115.319 26.2834C113.951 26.2834 112.851 25.9413 112.022 25.2571C111.206 24.5583 110.777 23.6557 110.733 22.5493ZM125.161 26.2834C123.88 26.2834 122.89 25.883 122.191 25.0824C121.493 24.2817 121.143 23.2335 121.143 21.9379V15.0813H124.506V20.7151C124.506 21.7341 124.688 22.4183 125.052 22.7677C125.416 23.1171 125.896 23.2918 126.493 23.2918C127.265 23.2918 127.796 23.0734 128.087 22.6367C128.378 22.2 128.524 21.574 128.524 20.7587V15.0813H131.887V25.9995H128.721L128.502 24.7767C128.167 25.2279 127.694 25.5919 127.083 25.8685C126.471 26.1451 125.831 26.2834 125.161 26.2834ZM137.438 25.9995H134.053V15.0813H137.198L137.438 16.9592L137.067 16.5661C137.358 16.0129 137.795 15.5689 138.377 15.2341C138.974 14.8847 139.614 14.71 140.299 14.71C141.376 14.71 142.22 14.9502 142.832 15.4306C143.458 15.911 143.909 16.5443 144.185 17.3304H143.661C143.836 16.5443 144.258 15.911 144.928 15.4306C145.598 14.9502 146.398 14.71 147.33 14.71C148.742 14.71 149.783 15.0885 150.453 15.8455C151.122 16.6025 151.457 17.607 151.457 18.859V25.9995H148.182V19.6888C148.182 19.0045 148.014 18.495 147.679 18.1602C147.359 17.8254 146.93 17.658 146.391 17.658C146.071 17.658 145.765 17.7308 145.474 17.8763C145.183 18.0073 144.942 18.2475 144.753 18.5969C144.564 18.9318 144.469 19.4122 144.469 20.0381V25.9995H141.15V19.6888C141.15 19.0045 140.99 18.5023 140.67 18.182C140.349 17.8472 139.92 17.6798 139.381 17.6798C139.061 17.6798 138.748 17.7526 138.442 17.8982C138.151 18.0292 137.911 18.2694 137.722 18.6188C137.533 18.9536 137.438 19.4267 137.438 20.0381V25.9995Z" fill="white" fill-opacity="0.5"/>
<path d="M24.7617 17.2083C25.6233 16.4868 26.1712 15.4031 26.1712 14.1914C26.1712 12.9797 25.6233 11.896 24.7617 11.1745C24.8605 11.1267 24.9555 11.0748 25.046 11.0186C25.6175 10.6632 26.292 10.458 27.0145 10.458C29.0764 10.458 30.7479 12.1295 30.7479 14.1914C30.7479 16.2533 29.0764 17.9248 27.0145 17.9248C26.292 17.9248 25.6175 17.7195 25.046 17.3642C24.9555 17.308 24.8605 17.2561 24.7617 17.2083Z" fill="white" fill-opacity="0.5"/>
<path d="M23.724 14.7787C24.1093 13.7231 24.042 12.5107 23.4361 11.4613C22.8303 10.412 21.8139 9.7474 20.707 9.55335C20.7687 9.46259 20.825 9.37014 20.8752 9.27617C21.1925 8.6827 21.6741 8.1677 22.2997 7.80647C24.0854 6.77552 26.3687 7.38733 27.3996 9.17298C28.4306 10.9586 27.8188 13.242 26.0331 14.2729C25.4074 14.6341 24.7206 14.7936 24.0481 14.7717C23.9416 14.7682 23.8333 14.7708 23.724 14.7787Z" fill="white" fill-opacity="0.5"/>
<path d="M21.6121 13.1934C21.4181 12.0865 20.7535 11.0701 19.7041 10.4643C18.6548 9.85847 17.4423 9.79112 16.3867 10.1765C16.3947 10.0671 16.3973 9.95887 16.3938 9.85238C16.3718 9.17978 16.5314 8.493 16.8926 7.86731C17.9236 6.08167 20.2068 5.46986 21.9925 6.5008C23.7781 7.53175 24.39 9.81505 23.359 11.6007C22.9978 12.2264 22.4828 12.708 21.8893 13.0252C21.7954 13.0755 21.7029 13.1318 21.6121 13.1934Z" fill="white" fill-opacity="0.5"/>
<path d="M18.9886 12.8768C18.2671 12.0152 17.1834 11.4673 15.9717 11.4673C14.76 11.4673 13.6763 12.0152 12.9548 12.8768C12.907 12.7781 12.8551 12.683 12.7988 12.5925C12.4435 12.021 12.2383 11.3465 12.2383 10.624C12.2383 8.56212 13.9098 6.89062 15.9717 6.89062C18.0336 6.89062 19.7051 8.56212 19.7051 10.624C19.7051 11.3465 19.4998 12.021 19.1445 12.5925C19.0882 12.683 19.0363 12.7781 18.9886 12.8768Z" fill="white" fill-opacity="0.5"/>
<path d="M16.5591 13.9139C15.5034 13.5285 14.2909 13.5958 13.2416 14.2016C12.1922 14.8075 11.5277 15.8238 11.3336 16.9307C11.2429 16.8691 11.1504 16.8128 11.0564 16.7625C10.463 16.4453 9.94798 15.9637 9.58674 15.338C8.55579 13.5523 9.1676 11.2691 10.9533 10.2381C12.7389 9.20716 15.0222 9.81897 16.0532 11.6046C16.4144 12.2303 16.574 12.9171 16.5519 13.5897C16.5485 13.6961 16.5511 13.8044 16.5591 13.9139Z" fill="white" fill-opacity="0.5"/>
<path d="M14.9747 16.027C13.8678 16.2211 12.8514 16.8856 12.2456 17.935C11.6397 18.9843 11.5724 20.1968 11.9578 21.2524C11.8484 21.2444 11.7401 21.2419 11.6336 21.2453C10.961 21.2673 10.2743 21.1078 9.64857 20.7465C7.86292 19.7156 7.25111 17.4323 8.28205 15.6466C9.313 13.861 11.5963 13.2491 13.382 14.2801C14.0076 14.6414 14.4892 15.1563 14.8065 15.7498C14.8567 15.8437 14.9131 15.9362 14.9747 16.027Z" fill="white" fill-opacity="0.5"/>
<path d="M14.658 18.6492C13.7965 19.3707 13.2485 20.4544 13.2485 21.666C13.2485 22.8777 13.7965 23.9614 14.658 24.6829C14.5593 24.7307 14.4643 24.7826 14.3738 24.8389C13.8023 25.1942 13.1277 25.3994 12.4053 25.3994C10.3434 25.3994 8.67188 23.7279 8.67188 21.666C8.67188 19.6041 10.3434 17.9326 12.4053 17.9326C13.1277 17.9326 13.8023 18.1378 14.3738 18.4932C14.4643 18.5494 14.5593 18.6013 14.658 18.6492Z" fill="white" fill-opacity="0.5"/>
<path d="M15.6961 21.0791C15.3106 22.1347 15.378 23.3472 15.9838 24.3965C16.5897 25.4459 17.606 26.1105 18.7129 26.3045C18.6513 26.3953 18.595 26.4878 18.5448 26.5817C18.2275 27.1752 17.7459 27.6902 17.1203 28.0514C15.3346 29.0824 13.0513 28.4705 12.0203 26.6849C10.9894 24.8992 11.6012 22.616 13.3868 21.585C14.0125 21.2237 14.6993 21.0642 15.3719 21.0862C15.4784 21.0897 15.5867 21.0871 15.6961 21.0791Z" fill="white" fill-opacity="0.5"/>
<path d="M17.8063 22.665C18.0003 23.7719 18.6649 24.7883 19.7142 25.3941C20.7636 25.9999 21.9761 26.0673 23.0317 25.6819C23.0237 25.7913 23.0212 25.8995 23.0246 26.0061C23.0466 26.6787 22.8871 27.3654 22.5259 27.9911C21.4949 29.7768 19.2116 30.3886 17.4259 29.3576C15.6402 28.3267 15.0284 26.0434 16.0594 24.2577C16.4207 23.6321 16.9356 23.1505 17.5291 22.8332C17.6231 22.783 17.7155 22.7266 17.8063 22.665Z" fill="white" fill-opacity="0.5"/>
<path d="M20.4313 22.9824C21.1528 23.844 22.2365 24.3919 23.4482 24.3919C24.6599 24.3919 25.7436 23.844 26.4651 22.9824C26.5129 23.0812 26.5648 23.1762 26.6211 23.2666C26.9764 23.8381 27.1816 24.5127 27.1816 25.2352C27.1816 27.2971 25.5101 28.9686 23.4482 28.9686C21.3863 28.9686 19.7148 27.2971 19.7148 25.2352C19.7148 24.5127 19.9201 23.8381 20.2754 23.2666C20.3317 23.1762 20.3836 23.0812 20.4313 22.9824Z" fill="white" fill-opacity="0.5"/>
<path d="M22.8594 21.9456C23.915 22.3309 25.1275 22.2636 26.1768 21.6578C27.2261 21.052 27.8907 20.0356 28.0848 18.9287C28.1755 18.9903 28.268 19.0466 28.362 19.0969C28.9555 19.4142 29.4704 19.8957 29.8317 20.5214C30.8627 22.3071 30.2508 24.5903 28.4652 25.6213C26.6795 26.6522 24.3962 26.0405 23.3652 24.2548C23.004 23.6291 22.8445 22.9423 22.8664 22.2697C22.8699 22.1633 22.8674 22.055 22.8594 21.9456Z" fill="white" fill-opacity="0.5"/>
<path d="M27.1766 17.9209C27.1759 17.9222 27.1751 17.9235 27.1743 17.9248C26.5686 18.9742 25.5522 19.6388 24.4453 19.8328C24.5069 19.9236 24.5632 20.0161 24.6135 20.11C24.9308 20.7035 25.4123 21.2185 26.038 21.5797C27.8237 22.6107 30.1069 21.9988 31.1379 20.2132C32.0217 18.6823 31.6982 16.7857 30.4627 15.626C29.9199 16.9286 28.6603 17.8577 27.1766 17.9209Z" fill="white" fill-opacity="0.5"/>
</svg>
