<svg width="229" height="165" viewBox="0 0 229 165" fill="none" xmlns="http://www.w3.org/2000/svg">
<path d="M191.173 37.005C156.208 37.448 128 65.93 128 101C128 136.346 156.654 165 192 165H256V125H192C178.745 125 168 114.255 168 101C168 87.745 178.745 77 192 77H256V-3H192C178.745 -3 168 -13.745 168 -27C168 -40.255 178.745 -51 192 -51H256V-91H192C156.654 -91 128 -62.346 128 -27C128 8.346 156.654 37 192 37L191.173 37.005ZM0 -51H64C77.255 -51 88 -40.255 88 -27C88 -13.745 77.255 -3 64 -3H0V77H64C77.255 77 88 87.745 88 101C88 114.255 77.255 125 64 125H0V165H64C99.346 165 128 136.346 128 101C128 65.93 99.792 37.448 64.827 37.005L64 37C99.346 37 128 8.346 128 -27C128 -62.346 99.346 -91 64 -91H0V-51Z" fill="#CBDFFA"/>
</svg>
