<svg width="47" height="40" viewBox="0 0 47 40" fill="none" xmlns="http://www.w3.org/2000/svg">
<path d="M37.0544 9.75661L46.2507 9.49582L46.52 18.992L37.3237 19.2528L37.0544 9.75661ZM36.7851 0.260424L45.9814 -0.000358342L46.2507 9.49582L37.0544 9.75661L36.7851 0.260424ZM27.5888 0.521207L36.7851 0.260424L37.0544 9.75661L27.8581 10.0174L27.5888 0.521207ZM37.3237 19.2528L46.52 18.992L46.7893 28.4882L37.593 28.749L37.3237 19.2528ZM28.3967 29.0098L37.593 28.749L37.8623 38.2452L28.666 38.5059L28.3967 29.0098ZM27.8581 10.0174L37.0544 9.75661L37.3237 19.2528L28.1274 19.5136L27.8581 10.0174ZM9.46553 10.539L18.6618 10.2782L18.9311 19.7744L9.73482 20.0351L9.46553 10.539ZM9.19625 1.04277L18.3925 0.781989L18.6618 10.2782L9.46553 10.539L9.19625 1.04277ZM-5.8602e-05 1.30355L9.19625 1.04277L9.46553 10.539L0.269228 10.7997L-5.8602e-05 1.30355ZM9.73482 20.0351L18.9311 19.7744L19.2004 29.2705L10.0041 29.5313L9.73482 20.0351ZM0.8078 29.7921L10.0041 29.5313L10.2734 39.0275L1.07709 39.2883L0.8078 29.7921ZM0.269228 10.7997L9.46553 10.539L9.73482 20.0351L0.538514 20.2959L0.269228 10.7997Z" fill="#080D0D"/>
</svg>
